<svg width="492" height="492" viewBox="0 0 492 492" fill="none" xmlns="http://www.w3.org/2000/svg">
    <path d="M382.776 80.5502C382.776 80.5502 339.48 43.1582 281.424 57.5148C223.368 71.8714 197.784 120.875 163.807 154.065C145.986 171.442 120.245 177.307 99.2955 190.473C32.3048 232.588 39.2715 331.746 88.8651 370.545C131.836 404.08 186.576 409.019 258.605 387.273C330.634 365.526 382.117 352.518 428.306 285.557C474.495 218.596 435.912 131.207 382.776 80.5502Z"
          fill="#007BFF"/>
    <path opacity="0.8"
          d="M382.776 80.5502C382.776 80.5502 339.48 43.1582 281.424 57.5148C223.368 71.8714 197.784 120.875 163.807 154.065C145.986 171.442 120.245 177.307 99.2955 190.473C32.3048 232.588 39.2715 331.746 88.8651 370.545C131.836 404.08 186.576 409.019 258.605 387.273C330.634 365.526 382.117 352.518 428.306 285.557C474.495 218.596 435.912 131.207 382.776 80.5502Z"
          fill="white"/>
    <path d="M119.143 212.111C119.143 212.111 119.143 207.073 112.087 200.018C105.032 192.962 100.496 188.928 100.496 188.928C100.496 188.928 96.9634 200.52 103.517 207.624C108.337 212.588 113.564 217.14 119.143 221.233V212.111Z"
          fill="#007BFF"/>
    <path d="M108.899 243.589C108.899 243.589 108.899 238.551 101.844 231.496C94.7886 224.441 90.2523 220.416 90.2523 220.416C90.2523 220.416 86.7296 232.008 93.2732 239.063C98.0935 244.027 103.32 248.579 108.899 252.672V243.589Z"
          fill="#007BFF"/>
    <path d="M118.7 220.701C118.7 220.701 119.231 215.683 126.995 209.415C134.759 203.147 139.698 199.575 139.698 199.575C139.698 199.575 141.981 211.471 134.719 217.799C129.403 222.227 123.725 226.203 117.745 229.685L118.7 220.701Z"
          fill="#007BFF"/>
    <path d="M106.331 257.877C106.331 257.877 107.384 252.957 115.767 247.525C124.151 242.094 129.425 239.112 129.425 239.112C129.425 239.112 130.409 251.186 122.537 256.716C116.785 260.557 110.722 263.911 104.412 266.743L106.331 257.877Z"
          fill="#007BFF"/>
    <path d="M108.653 298.408C108.653 298.408 108.653 293.37 115.708 286.305C122.764 279.24 127.3 275.215 127.3 275.215C127.3 275.215 130.832 286.816 124.279 293.911C119.459 298.875 114.232 303.427 108.653 307.52V298.408Z"
          fill="#007BFF"/>
    <path d="M108.535 308.297C108.535 308.297 109.253 303.308 103.271 295.318C97.288 287.328 93.3717 282.693 93.3717 282.693C93.3717 282.693 88.2352 293.675 93.7161 301.586C97.782 307.188 102.311 312.438 107.256 317.281L108.535 308.297Z"
          fill="#007BFF"/>
    <path d="M101.578 337.62C101.578 337.62 101.578 332.582 108.633 325.517C115.689 318.452 120.225 314.437 120.225 314.437C120.225 314.437 123.757 326.029 117.204 333.084C112.384 338.048 107.157 342.6 101.578 346.693V337.62Z"
          fill="#007BFF"/>
    <path d="M106.272 364.198C106.272 364.198 104.993 359.327 110.031 350.707C115.069 342.088 118.444 337.05 118.444 337.05C118.444 337.05 124.791 347.372 120.235 355.854C116.838 361.865 112.941 367.579 108.584 372.936L106.272 364.198Z"
          fill="#007BFF"/>
    <path d="M119.782 210.822C119.412 216.069 118.755 221.292 117.814 226.468C115.02 240.883 108.053 250.182 105.258 263.2C102.464 276.219 110.474 292.986 108.328 309.704C106.183 326.422 99.679 335.721 101.539 346.88C103.399 358.038 113.16 388.257 113.16 388.257"
          stroke="#263238" stroke-linecap="round" stroke-linejoin="round"/>
    <path d="M118.631 224.047L126.237 218.212" stroke="#263238" stroke-linecap="round" stroke-linejoin="round"/>
    <path d="M118.985 217.326L115.797 211.668" stroke="#263238" stroke-linecap="round" stroke-linejoin="round"/>
    <path d="M105.721 262.6C105.721 262.6 112.087 257.828 118.631 253.055" stroke="#263238" stroke-linecap="round"
          stroke-linejoin="round"/>
    <path d="M108.899 252.662C108.899 252.662 103.596 242.261 97.5833 235.363" stroke="#263238" stroke-linecap="round"
          stroke-linejoin="round"/>
    <path d="M108.909 305.571C112.539 298.864 117.123 292.719 122.518 287.328" stroke="#263238" stroke-linecap="round"
          stroke-linejoin="round"/>
    <path d="M107.669 312.646C105.736 308.102 103.432 303.725 100.781 299.559C97.0616 294.078 96.5303 293.37 96.5303 293.37"
          stroke="#263238" stroke-linecap="round" stroke-linejoin="round"/>
    <path d="M101.578 346.88C103.19 342.874 105.108 338.999 107.315 335.288C109.518 331.845 112.003 328.59 114.744 325.556"
          stroke="#263238" stroke-linecap="round" stroke-linejoin="round"/>
    <path d="M108.584 372.936C108.219 369.113 108.878 365.262 110.493 361.777C113.15 356.641 116.151 349.969 117.381 347.273"
          stroke="#263238" stroke-linecap="round" stroke-linejoin="round"/>
    <path d="M72.9341 279.456C72.9341 279.456 72.3929 276.297 76.0435 271.112C79.6941 265.926 82.1148 262.895 82.1148 262.895C82.1148 262.895 85.5883 269.783 82.2427 274.92C79.7586 278.554 76.974 281.974 73.9181 285.144L72.9341 279.456Z"
          fill="#007BFF"/>
    <path d="M82.7739 298.073C82.7739 298.073 82.2228 294.915 85.8833 289.729C89.5438 284.543 91.9546 281.513 91.9546 281.513C91.9546 281.513 95.4281 288.401 92.0825 293.537C89.5972 297.174 86.8127 300.597 83.7579 303.771L82.7739 298.073Z"
          fill="#007BFF"/>
    <path d="M74.1443 284.789C74.1443 284.789 73.2685 281.7 67.7188 278.61C62.169 275.52 58.6955 273.837 58.6955 273.837C58.6955 273.837 58.5479 281.552 63.7926 284.73C67.6198 286.933 71.6257 288.809 75.7679 290.339L74.1443 284.789Z"
          fill="#007BFF"/>
    <path d="M85.9425 306.752C85.9425 306.752 84.742 303.8 78.8971 301.291C73.0521 298.782 69.4211 297.493 69.4211 297.493C69.4211 297.493 70.0903 305.178 75.64 307.785C79.6645 309.571 83.8316 311.016 88.0975 312.105L85.9425 306.752Z"
          fill="#007BFF"/>
    <path d="M88.8846 332.425C88.8846 332.425 88.3335 329.266 83.1479 325.606C77.9622 321.945 74.6658 319.908 74.6658 319.908C74.6658 319.908 73.6818 327.564 78.6018 331.273C82.1638 333.863 85.9358 336.15 89.8784 338.112L88.8846 332.425Z"
          fill="#007BFF"/>
    <path d="M90.026 338.614C90.026 338.614 89.042 335.564 91.9251 329.906C94.8082 324.248 96.7565 320.912 96.7565 320.912C96.7565 320.912 101.175 327.239 98.5966 332.799C96.6565 336.75 94.3886 340.532 91.8168 344.105L90.026 338.614Z"
          fill="#007BFF"/>
    <path d="M98.8819 364.08C98.8819 364.08 99.2559 360.892 104.225 356.946C109.194 353 112.363 350.776 112.363 350.776C112.363 350.776 113.75 358.363 109.096 362.348C105.687 365.137 102.05 367.636 98.2227 369.817L98.8819 364.08Z"
          fill="#007BFF"/>
    <path d="M97.5732 356.208C97.5732 356.208 97.032 353.04 91.8365 349.389C86.641 345.738 83.3643 343.692 83.3643 343.692C83.3643 343.692 82.3803 351.347 87.3003 355.057C90.8638 357.644 94.6355 359.931 98.5769 361.896L97.5732 356.208Z"
          fill="#007BFF"/>
    <path d="M97.5044 373.428C97.5044 373.428 97.7799 370.23 93.6864 365.379C89.593 360.528 86.9264 357.723 86.9264 357.723C86.9264 357.723 84.0629 364.877 87.8415 369.708C90.6306 373.116 93.7017 376.282 97.0222 379.175L97.5044 373.428Z"
          fill="#007BFF"/>
    <path d="M72.3928 278.708C73.1992 281.961 74.1848 285.168 75.3448 288.312C78.6609 297.05 84.0434 302.088 87.1528 309.96C90.2623 317.832 87.1528 329.207 90.2721 339.48C93.3914 349.753 98.5279 354.85 98.5672 362.053C98.6066 369.256 95.7727 389.261 95.7727 389.261"
          stroke="#263238" stroke-linecap="round" stroke-linejoin="round"/>
    <path d="M74.5577 286.875L69.1555 284.041" stroke="#263238" stroke-linecap="round" stroke-linejoin="round"/>
    <path d="M73.603 282.703L74.9806 278.807" stroke="#263238" stroke-linecap="round" stroke-linejoin="round"/>
    <path d="M86.8378 309.655C86.8378 309.655 82.3213 307.352 77.7358 305.04" stroke="#263238" stroke-linecap="round"
          stroke-linejoin="round"/>
    <path d="M83.7581 303.771C85.0807 299.574 86.8315 295.525 88.9831 291.687" stroke="#263238" stroke-linecap="round"
          stroke-linejoin="round"/>
    <path d="M89.5439 336.941C86.5369 333.137 82.9937 329.789 79.0249 327.003" stroke="#263238" stroke-linecap="round"
          stroke-linejoin="round"/>
    <path d="M91.0493 341.251C91.783 338.19 92.7704 335.194 94.0013 332.297C95.7332 328.449 95.9693 327.948 95.9693 327.948"
          stroke="#263238" stroke-linecap="round" stroke-linejoin="round"/>
    <path d="M98.3311 367.514C100.087 365.335 102.033 363.316 104.146 361.482C105.488 360.491 106.748 359.396 107.915 358.206"
          stroke="#263238" stroke-linecap="round" stroke-linejoin="round"/>
    <path d="M98.5769 362.053C97.1344 359.714 95.5125 357.49 93.7258 355.401C91.9684 353.483 90.0563 351.712 88.0088 350.107"
          stroke="#263238" stroke-linecap="round" stroke-linejoin="round"/>
    <path d="M97.0223 379.175C96.832 376.738 96.0002 374.396 94.6115 372.385C92.3877 369.433 89.7702 365.566 88.7075 364.041"
          stroke="#263238" stroke-linecap="round" stroke-linejoin="round"/>
    <path d="M120.52 423.73H88.3829C88.068 423.731 87.756 423.67 87.4648 423.551C87.1736 423.431 86.9088 423.255 86.6857 423.033C86.4626 422.811 86.2856 422.547 86.1649 422.256C86.0441 421.966 85.9819 421.654 85.9819 421.339L81.3669 385.728H127.526L122.911 421.3C122.917 421.617 122.859 421.932 122.741 422.227C122.623 422.521 122.448 422.79 122.225 423.016C122.003 423.242 121.737 423.422 121.445 423.544C121.152 423.667 120.838 423.73 120.52 423.73Z"
          fill="#263238"/>
    <path d="M127.123 391.789H81.3668C80.8909 391.792 80.4192 391.701 79.9788 391.52C79.5384 391.34 79.1379 391.074 78.8005 390.739C78.4631 390.403 78.1953 390.004 78.0126 389.565C77.8299 389.125 77.7358 388.654 77.7358 388.178C77.7358 387.22 78.1163 386.302 78.7936 385.625C79.4708 384.947 80.3893 384.567 81.3471 384.567H127.103C128.061 384.567 128.979 384.947 129.657 385.625C130.334 386.302 130.714 387.22 130.714 388.178C130.714 389.133 130.337 390.048 129.664 390.725C128.991 391.401 128.077 391.784 127.123 391.789Z"
          fill="#263238"/>
    <path d="M415.868 82.656H110.523V335.672H415.868V82.656Z" fill="#007BFF"/>
    <path opacity="0.5" d="M415.868 82.656H110.523V335.672H415.868V82.656Z" fill="white"/>
    <path d="M414.048 123.335H163.885V332.316H414.048V123.335Z" fill="white"/>
    <path d="M232.234 313.502H406.5" stroke="#8C8C8C" stroke-width="0.51243" stroke-miterlimit="10"/>
    <path d="M232.234 313.502V311.918" stroke="#8C8C8C" stroke-width="0.51243" stroke-miterlimit="10"/>
    <path d="M406.5 313.502V311.918" stroke="#8C8C8C" stroke-width="0.51243" stroke-miterlimit="10"/>
    <path d="M240.814 313.502V249.857" stroke="#8C8C8C" stroke-width="0.51243" stroke-miterlimit="10"/>
    <path d="M240.814 313.502H245.174" stroke="#8C8C8C" stroke-width="0.51243" stroke-miterlimit="10"/>
    <path d="M240.814 305.552H245.174" stroke="#8C8C8C" stroke-width="0.51243" stroke-miterlimit="10"/>
    <path d="M240.814 297.591H245.174" stroke="#8C8C8C" stroke-width="0.51243" stroke-miterlimit="10"/>
    <path d="M240.814 289.64H245.174" stroke="#8C8C8C" stroke-width="0.51243" stroke-miterlimit="10"/>
    <path d="M240.814 281.68H245.174" stroke="#8C8C8C" stroke-width="0.51243" stroke-miterlimit="10"/>
    <path d="M240.814 273.729H245.174" stroke="#8C8C8C" stroke-width="0.51243" stroke-miterlimit="10"/>
    <path d="M240.814 265.769H245.174" stroke="#8C8C8C" stroke-width="0.51243" stroke-miterlimit="10"/>
    <path d="M240.814 257.818H245.174" stroke="#8C8C8C" stroke-width="0.51243" stroke-miterlimit="10"/>
    <path d="M240.814 249.857H245.174" stroke="#8C8C8C" stroke-width="0.51243" stroke-miterlimit="10"/>
    <path d="M388.532 265.769H378.879V313.502H388.532V265.769Z" fill="#A1A1A1"/>
    <path d="M377.817 301.576H368.164V313.512H377.817V301.576Z" fill="#007BFF"/>
    <path d="M367.091 299.185H357.438V313.502H367.091V299.185Z" fill="#A1A1A1"/>
    <path d="M356.365 273.729H346.712V313.512H356.365V273.729Z" fill="#007BFF"/>
    <path d="M345.64 289.64H335.987V313.512H345.64V289.64Z" fill="#A1A1A1"/>
    <path d="M334.914 293.616H325.261V313.502H334.914V293.616Z" fill="#007BFF"/>
    <path d="M324.189 297.591H314.536V313.502H324.189V297.591Z" fill="#A1A1A1"/>
    <path d="M313.463 257.818H303.81V313.512H313.463V257.818Z" fill="#007BFF"/>
    <path d="M302.747 305.552H293.094V313.512H302.747V305.552Z" fill="#A1A1A1"/>
    <path d="M292.022 289.64H282.369V313.512H292.022V289.64Z" fill="#007BFF"/>
    <path d="M281.296 273.729H271.643V313.512H281.296V273.729Z" fill="#A1A1A1"/>
    <path d="M270.571 281.68H260.917V313.502H270.571V281.68Z" fill="#007BFF"/>
    <path d="M259.845 297.591H250.192V313.502H259.845V297.591Z" fill="#A1A1A1"/>
    <path d="M171.688 219.314H401.098" stroke="#8C8C8C" stroke-width="0.51243" stroke-miterlimit="10"/>
    <path d="M171.688 219.314V217.061" stroke="#8C8C8C" stroke-width="0.51243" stroke-miterlimit="10"/>
    <path d="M183.762 219.314V217.061" stroke="#8C8C8C" stroke-width="0.51243" stroke-miterlimit="10"/>
    <path d="M195.836 219.314V217.061" stroke="#8C8C8C" stroke-width="0.51243" stroke-miterlimit="10"/>
    <path d="M207.909 219.314V217.061" stroke="#8C8C8C" stroke-width="0.51243" stroke-miterlimit="10"/>
    <path d="M219.983 219.314V217.061" stroke="#8C8C8C" stroke-width="0.51243" stroke-miterlimit="10"/>
    <path d="M232.057 219.314V217.061" stroke="#8C8C8C" stroke-width="0.51243" stroke-miterlimit="10"/>
    <path d="M244.13 219.314V217.061" stroke="#8C8C8C" stroke-width="0.51243" stroke-miterlimit="10"/>
    <path d="M256.204 219.314V217.061" stroke="#8C8C8C" stroke-width="0.51243" stroke-miterlimit="10"/>
    <path d="M268.278 219.314V217.061" stroke="#8C8C8C" stroke-width="0.51243" stroke-miterlimit="10"/>
    <path d="M280.361 219.314V217.061" stroke="#8C8C8C" stroke-width="0.51243" stroke-miterlimit="10"/>
    <path d="M292.435 219.314V217.061" stroke="#8C8C8C" stroke-width="0.51243" stroke-miterlimit="10"/>
    <path d="M304.509 219.314V217.061" stroke="#8C8C8C" stroke-width="0.51243" stroke-miterlimit="10"/>
    <path d="M316.583 219.314V217.061" stroke="#8C8C8C" stroke-width="0.51243" stroke-miterlimit="10"/>
    <path d="M328.656 219.314V217.061" stroke="#8C8C8C" stroke-width="0.51243" stroke-miterlimit="10"/>
    <path d="M340.73 219.314V217.061" stroke="#8C8C8C" stroke-width="0.51243" stroke-miterlimit="10"/>
    <path d="M352.803 219.314V217.061" stroke="#8C8C8C" stroke-width="0.51243" stroke-miterlimit="10"/>
    <path d="M364.877 219.314V217.061" stroke="#8C8C8C" stroke-width="0.51243" stroke-miterlimit="10"/>
    <path d="M376.951 219.314V217.061" stroke="#8C8C8C" stroke-width="0.51243" stroke-miterlimit="10"/>
    <path d="M389.024 219.314V217.061" stroke="#8C8C8C" stroke-width="0.51243" stroke-miterlimit="10"/>
    <path d="M401.098 219.314V217.061" stroke="#8C8C8C" stroke-width="0.51243" stroke-miterlimit="10"/>
    <path d="M171.688 219.314V129.327" stroke="#8C8C8C" stroke-width="0.51243" stroke-miterlimit="10"/>
    <path d="M171.688 219.314H177.425" stroke="#8C8C8C" stroke-width="0.51243" stroke-miterlimit="10"/>
    <path d="M171.688 201.317H177.425" stroke="#8C8C8C" stroke-width="0.51243" stroke-miterlimit="10"/>
    <path d="M171.688 183.319H177.425" stroke="#8C8C8C" stroke-width="0.51243" stroke-miterlimit="10"/>
    <path d="M171.688 165.322H177.425" stroke="#8C8C8C" stroke-width="0.51243" stroke-miterlimit="10"/>
    <path d="M171.688 147.324H177.425" stroke="#8C8C8C" stroke-width="0.51243" stroke-miterlimit="10"/>
    <path d="M171.688 129.327H177.425" stroke="#8C8C8C" stroke-width="0.51243" stroke-miterlimit="10"/>
    <path d="M189.804 147.324L177.73 201.317" stroke="#007BFF" stroke-width="2.04972" stroke-miterlimit="10"
          stroke-linecap="round"/>
    <path d="M201.878 177.917L189.804 147.324" stroke="#007BFF" stroke-width="2.04972" stroke-miterlimit="10"
          stroke-linecap="round"/>
    <path d="M213.951 165.322L201.877 177.917" stroke="#007BFF" stroke-width="2.04972" stroke-miterlimit="10"
          stroke-linecap="round"/>
    <path d="M226.025 197.715L213.951 165.322" stroke="#007BFF" stroke-width="2.04972" stroke-miterlimit="10"
          stroke-linecap="round"/>
    <path d="M238.099 147.324L226.025 197.715" stroke="#007BFF" stroke-width="2.04972" stroke-miterlimit="10"
          stroke-linecap="round"/>
    <path d="M250.172 129.327L238.099 147.324" stroke="#007BFF" stroke-width="2.04972" stroke-miterlimit="10"
          stroke-linecap="round"/>
    <path d="M262.246 210.31L250.172 129.327" stroke="#007BFF" stroke-width="2.04972" stroke-miterlimit="10"
          stroke-linecap="round"/>
    <path d="M274.32 204.908L262.246 210.31" stroke="#007BFF" stroke-width="2.04972" stroke-miterlimit="10"
          stroke-linecap="round"/>
    <path d="M286.393 203.107L274.32 204.908" stroke="#007BFF" stroke-width="2.04972" stroke-miterlimit="10"
          stroke-linecap="round"/>
    <path d="M298.467 197.715L286.393 203.107" stroke="#007BFF" stroke-width="2.04972" stroke-miterlimit="10"
          stroke-linecap="round"/>
    <path d="M310.541 190.512L298.467 197.715" stroke="#007BFF" stroke-width="2.04972" stroke-miterlimit="10"
          stroke-linecap="round"/>
    <path d="M322.614 194.114L310.541 190.512" stroke="#007BFF" stroke-width="2.04972" stroke-miterlimit="10"
          stroke-linecap="round"/>
    <path d="M334.688 201.317L322.614 194.114" stroke="#007BFF" stroke-width="2.04972" stroke-miterlimit="10"
          stroke-linecap="round"/>
    <path d="M346.762 163.521L334.688 201.317" stroke="#007BFF" stroke-width="2.04972" stroke-miterlimit="10"
          stroke-linecap="round"/>
    <path d="M358.835 158.119L346.762 163.521" stroke="#007BFF" stroke-width="2.04972" stroke-miterlimit="10"
          stroke-linecap="round"/>
    <path d="M370.909 150.926L358.835 158.119" stroke="#007BFF" stroke-width="2.04972" stroke-miterlimit="10"
          stroke-linecap="round"/>
    <path d="M382.983 158.119L370.909 150.926" stroke="#007BFF" stroke-width="2.04972" stroke-miterlimit="10"
          stroke-linecap="round"/>
    <path d="M395.056 165.322L382.983 158.119" stroke="#007BFF" stroke-width="2.04972" stroke-miterlimit="10"
          stroke-linecap="round"/>
    <path d="M177.73 199.181C178.297 199.181 178.84 199.406 179.24 199.807C179.641 200.207 179.866 200.75 179.866 201.317C179.863 201.881 179.637 202.422 179.237 202.82C178.837 203.218 178.295 203.442 177.73 203.442C177.166 203.442 176.624 203.218 176.224 202.82C175.824 202.422 175.598 201.881 175.595 201.317C175.595 200.75 175.82 200.207 176.22 199.807C176.621 199.406 177.164 199.181 177.73 199.181Z"
          fill="white" stroke="#007BFF" stroke-width="1.02486" stroke-linecap="round" stroke-linejoin="round"/>
    <path d="M189.804 145.189C190.37 145.189 190.913 145.414 191.314 145.815C191.714 146.215 191.939 146.758 191.939 147.324C191.939 147.891 191.714 148.434 191.314 148.834C190.913 149.235 190.37 149.46 189.804 149.46C189.237 149.46 188.694 149.235 188.294 148.834C187.893 148.434 187.668 147.891 187.668 147.324C187.668 146.758 187.893 146.215 188.294 145.815C188.694 145.414 189.237 145.189 189.804 145.189Z"
          fill="white" stroke="#007BFF" stroke-width="1.02486" stroke-linecap="round" stroke-linejoin="round"/>
    <path d="M201.877 175.782C202.444 175.782 202.987 176.007 203.387 176.407C203.788 176.808 204.013 177.351 204.013 177.917C204.013 178.483 203.788 179.026 203.387 179.427C202.987 179.827 202.444 180.052 201.877 180.052C201.311 180.052 200.768 179.827 200.368 179.427C199.967 179.026 199.742 178.483 199.742 177.917C199.742 177.351 199.967 176.808 200.368 176.407C200.768 176.007 201.311 175.782 201.877 175.782Z"
          fill="white" stroke="#007BFF" stroke-width="1.02486" stroke-linecap="round" stroke-linejoin="round"/>
    <path d="M213.951 163.187C214.516 163.187 215.057 163.41 215.458 163.808C215.858 164.207 216.084 164.747 216.086 165.312C216.086 165.878 215.862 166.421 215.461 166.822C215.061 167.222 214.518 167.447 213.951 167.447C213.385 167.447 212.842 167.222 212.441 166.822C212.041 166.421 211.816 165.878 211.816 165.312C211.819 164.747 212.045 164.207 212.445 163.808C212.845 163.41 213.387 163.187 213.951 163.187Z"
          fill="white" stroke="#007BFF" stroke-width="1.02486" stroke-linecap="round" stroke-linejoin="round"/>
    <path d="M226.025 195.58C226.591 195.58 227.134 195.805 227.535 196.205C227.935 196.606 228.16 197.149 228.16 197.715C228.16 198.281 227.935 198.825 227.535 199.225C227.134 199.625 226.591 199.85 226.025 199.85C225.459 199.85 224.915 199.625 224.515 199.225C224.115 198.825 223.89 198.281 223.89 197.715C223.89 197.149 224.115 196.606 224.515 196.205C224.915 195.805 225.459 195.58 226.025 195.58Z"
          fill="white" stroke="#007BFF" stroke-width="1.02486" stroke-linecap="round" stroke-linejoin="round"/>
    <path d="M238.128 145.189C238.694 145.189 239.238 145.414 239.638 145.815C240.038 146.215 240.263 146.758 240.263 147.324C240.263 147.891 240.038 148.434 239.638 148.834C239.238 149.235 238.694 149.46 238.128 149.46C237.562 149.46 237.019 149.235 236.618 148.834C236.218 148.434 235.993 147.891 235.993 147.324C235.993 146.758 236.218 146.215 236.618 145.815C237.019 145.414 237.562 145.189 238.128 145.189Z"
          fill="white" stroke="#007BFF" stroke-width="1.02486" stroke-linecap="round" stroke-linejoin="round"/>
    <path d="M250.172 127.192C250.738 127.192 251.282 127.417 251.682 127.817C252.082 128.218 252.307 128.761 252.307 129.327C252.307 129.893 252.082 130.437 251.682 130.837C251.282 131.237 250.738 131.462 250.172 131.462C249.606 131.462 249.063 131.237 248.662 130.837C248.262 130.437 248.037 129.893 248.037 129.327C248.037 128.761 248.262 128.218 248.662 127.817C249.063 127.417 249.606 127.192 250.172 127.192Z"
          fill="white" stroke="#007BFF" stroke-width="1.02486" stroke-linecap="round" stroke-linejoin="round"/>
    <path d="M262.246 208.175C262.526 208.175 262.804 208.23 263.063 208.338C263.322 208.445 263.558 208.602 263.756 208.8C263.954 208.999 264.111 209.234 264.219 209.493C264.326 209.752 264.381 210.03 264.381 210.31C264.381 210.591 264.326 210.868 264.219 211.127C264.111 211.387 263.954 211.622 263.756 211.82C263.558 212.018 263.322 212.176 263.063 212.283C262.804 212.39 262.526 212.446 262.246 212.446C261.68 212.446 261.136 212.221 260.736 211.82C260.336 211.42 260.111 210.877 260.111 210.31C260.111 209.744 260.336 209.201 260.736 208.8C261.136 208.4 261.68 208.175 262.246 208.175Z"
          fill="white" stroke="#007BFF" stroke-width="1.02486" stroke-linecap="round" stroke-linejoin="round"/>
    <path d="M274.32 202.783C274.884 202.783 275.426 203.006 275.826 203.405C276.226 203.803 276.452 204.344 276.455 204.908C276.455 205.474 276.23 206.018 275.829 206.418C275.429 206.818 274.886 207.043 274.32 207.043C273.753 207.043 273.21 206.818 272.81 206.418C272.409 206.018 272.184 205.474 272.184 204.908C272.187 204.344 272.413 203.803 272.813 203.405C273.213 203.006 273.755 202.783 274.32 202.783Z"
          fill="white" stroke="#007BFF" stroke-width="1.02486" stroke-linecap="round" stroke-linejoin="round"/>
    <path d="M286.393 200.982C286.958 200.982 287.5 201.206 287.9 201.604C288.3 202.002 288.526 202.543 288.529 203.107C288.529 203.388 288.473 203.666 288.366 203.925C288.259 204.184 288.101 204.419 287.903 204.617C287.705 204.816 287.47 204.973 287.21 205.08C286.951 205.187 286.674 205.243 286.393 205.243C285.827 205.243 285.284 205.018 284.883 204.617C284.483 204.217 284.258 203.674 284.258 203.107C284.261 202.543 284.487 202.002 284.887 201.604C285.287 201.206 285.829 200.982 286.393 200.982Z"
          fill="white" stroke="#007BFF" stroke-width="1.02486" stroke-linecap="round" stroke-linejoin="round"/>
    <path d="M298.467 195.58C299.033 195.58 299.576 195.805 299.977 196.205C300.377 196.606 300.602 197.149 300.602 197.715C300.602 198.281 300.377 198.825 299.977 199.225C299.576 199.625 299.033 199.85 298.467 199.85C297.901 199.85 297.357 199.625 296.957 199.225C296.557 198.825 296.332 198.281 296.332 197.715C296.332 197.149 296.557 196.606 296.957 196.205C297.357 195.805 297.901 195.58 298.467 195.58Z"
          fill="white" stroke="#007BFF" stroke-width="1.02486" stroke-linecap="round" stroke-linejoin="round"/>
    <path d="M310.541 188.377C311.107 188.377 311.65 188.602 312.05 189.002C312.451 189.403 312.676 189.946 312.676 190.512C312.676 191.079 312.451 191.622 312.05 192.022C311.65 192.423 311.107 192.648 310.541 192.648C309.974 192.648 309.431 192.423 309.031 192.022C308.63 191.622 308.405 191.079 308.405 190.512C308.405 189.946 308.63 189.403 309.031 189.002C309.431 188.602 309.974 188.377 310.541 188.377Z"
          fill="white" stroke="#007BFF" stroke-width="1.02486" stroke-linecap="round" stroke-linejoin="round"/>
    <path d="M322.614 191.978C322.895 191.978 323.172 192.034 323.431 192.141C323.69 192.248 323.926 192.406 324.124 192.604C324.322 192.802 324.48 193.037 324.587 193.297C324.694 193.556 324.75 193.833 324.75 194.114C324.75 194.394 324.694 194.672 324.587 194.931C324.48 195.19 324.322 195.425 324.124 195.624C323.926 195.822 323.69 195.979 323.431 196.086C323.172 196.194 322.895 196.249 322.614 196.249C322.048 196.249 321.505 196.024 321.104 195.624C320.704 195.223 320.479 194.68 320.479 194.114C320.479 193.547 320.704 193.004 321.104 192.604C321.505 192.203 322.048 191.978 322.614 191.978Z"
          fill="white" stroke="#007BFF" stroke-width="1.02486" stroke-linecap="round" stroke-linejoin="round"/>
    <path d="M334.688 199.181C335.254 199.181 335.797 199.406 336.198 199.807C336.598 200.207 336.823 200.75 336.823 201.317C336.821 201.881 336.595 202.422 336.194 202.82C335.794 203.218 335.253 203.442 334.688 203.442C334.123 203.442 333.582 203.218 333.182 202.82C332.781 202.422 332.555 201.881 332.553 201.317C332.553 200.75 332.778 200.207 333.178 199.807C333.579 199.406 334.122 199.181 334.688 199.181Z"
          fill="white" stroke="#007BFF" stroke-width="1.02486" stroke-linecap="round" stroke-linejoin="round"/>
    <path d="M346.762 161.376C347.328 161.376 347.871 161.601 348.272 162.001C348.672 162.402 348.897 162.945 348.897 163.511C348.897 164.078 348.672 164.621 348.272 165.021C347.871 165.422 347.328 165.647 346.762 165.647C346.195 165.647 345.652 165.422 345.252 165.021C344.851 164.621 344.626 164.078 344.626 163.511C344.626 162.945 344.851 162.402 345.252 162.001C345.652 161.601 346.195 161.376 346.762 161.376Z"
          fill="white" stroke="#007BFF" stroke-width="1.02486" stroke-linecap="round" stroke-linejoin="round"/>
    <path d="M358.836 155.984C359.116 155.984 359.394 156.039 359.653 156.146C359.912 156.254 360.147 156.411 360.345 156.609C360.544 156.807 360.701 157.043 360.808 157.302C360.916 157.561 360.971 157.839 360.971 158.119C360.971 158.399 360.916 158.677 360.808 158.936C360.701 159.195 360.544 159.431 360.345 159.629C360.147 159.827 359.912 159.984 359.653 160.092C359.394 160.199 359.116 160.254 358.836 160.254C358.269 160.254 357.726 160.029 357.326 159.629C356.925 159.228 356.7 158.685 356.7 158.119C356.7 157.553 356.925 157.01 357.326 156.609C357.726 156.209 358.269 155.984 358.836 155.984Z"
          fill="white" stroke="#007BFF" stroke-width="1.02486" stroke-linecap="round" stroke-linejoin="round"/>
    <path d="M370.909 148.791C371.475 148.791 372.018 149.016 372.419 149.416C372.819 149.816 373.044 150.36 373.044 150.926C373.042 151.491 372.816 152.031 372.415 152.429C372.015 152.828 371.474 153.051 370.909 153.051C370.344 153.051 369.803 152.828 369.403 152.429C369.002 152.031 368.776 151.491 368.774 150.926C368.774 150.36 368.999 149.816 369.399 149.416C369.8 149.016 370.343 148.791 370.909 148.791Z"
          fill="white" stroke="#007BFF" stroke-width="1.02486" stroke-linecap="round" stroke-linejoin="round"/>
    <path d="M382.983 155.984C383.549 155.984 384.092 156.209 384.493 156.609C384.893 157.01 385.118 157.553 385.118 158.119C385.118 158.685 384.893 159.228 384.493 159.629C384.092 160.029 383.549 160.254 382.983 160.254C382.416 160.254 381.873 160.029 381.473 159.629C381.072 159.228 380.847 158.685 380.847 158.119C380.847 157.553 381.072 157.01 381.473 156.609C381.873 156.209 382.416 155.984 382.983 155.984Z"
          fill="white" stroke="#007BFF" stroke-width="1.02486" stroke-linecap="round" stroke-linejoin="round"/>
    <path d="M395.056 163.187C395.337 163.187 395.615 163.242 395.874 163.349C396.133 163.456 396.368 163.614 396.566 163.812C396.765 164.01 396.922 164.246 397.029 164.505C397.137 164.764 397.192 165.041 397.192 165.322C397.192 165.602 397.137 165.88 397.029 166.139C396.922 166.398 396.765 166.633 396.566 166.832C396.368 167.03 396.133 167.187 395.874 167.295C395.615 167.402 395.337 167.457 395.056 167.457C394.491 167.455 393.949 167.229 393.549 166.829C393.15 166.429 392.924 165.887 392.921 165.322C392.921 164.756 393.146 164.212 393.547 163.812C393.947 163.412 394.49 163.187 395.056 163.187Z"
          fill="white" stroke="#007BFF" stroke-width="1.02486" stroke-linecap="round" stroke-linejoin="round"/>
    <path d="M415.868 82.656H407.976V335.672H415.868V82.656Z" fill="#DBDBDB"/>
    <path d="M415.868 228.445H407.976V292.897H415.868V228.445Z" fill="#878787"/>
    <path d="M415.868 82.656H110.523V98.1442H415.868V82.656Z" fill="#263238"/>
    <path d="M326.924 85.2931H130.606V94.031H326.924V85.2931Z" fill="#EDEDED"/>
    <path d="M125.864 129.937H153.917" stroke="black" stroke-width="1.02486" stroke-linecap="round"
          stroke-linejoin="round"/>
    <path d="M120.609 132.378C122.065 132.378 123.246 131.197 123.246 129.74C123.246 128.284 122.065 127.103 120.609 127.103C119.153 127.103 117.972 128.284 117.972 129.74C117.972 131.197 119.153 132.378 120.609 132.378Z"
          stroke="black" stroke-width="1.02486" stroke-linecap="round" stroke-linejoin="round"/>
    <path d="M125.864 146.832H153.917" stroke="black" stroke-width="1.02486" stroke-linecap="round"
          stroke-linejoin="round"/>
    <path d="M120.609 149.283C122.065 149.283 123.246 148.102 123.246 146.646C123.246 145.189 122.065 144.008 120.609 144.008C119.153 144.008 117.972 145.189 117.972 146.646C117.972 148.102 119.153 149.283 120.609 149.283Z"
          stroke="black" stroke-width="1.02486" stroke-linecap="round" stroke-linejoin="round"/>
    <path d="M125.864 163.738H153.917" stroke="black" stroke-width="1.02486" stroke-linecap="round"
          stroke-linejoin="round"/>
    <path d="M120.609 166.188C122.065 166.188 123.246 165.007 123.246 163.551C123.246 162.094 122.065 160.914 120.609 160.914C119.153 160.914 117.972 162.094 117.972 163.551C117.972 165.007 119.153 166.188 120.609 166.188Z"
          stroke="black" stroke-width="1.02486" stroke-linecap="round" stroke-linejoin="round"/>
    <path d="M125.864 180.643H153.917" stroke="black" stroke-width="1.02486" stroke-linecap="round"
          stroke-linejoin="round"/>
    <path d="M123.256 180.446C123.256 179.922 123.101 179.411 122.81 178.975C122.519 178.54 122.105 178.201 121.622 178C121.138 177.8 120.606 177.748 120.092 177.85C119.579 177.952 119.107 178.204 118.737 178.574C118.367 178.944 118.115 179.416 118.013 179.93C117.911 180.443 117.963 180.975 118.163 181.459C118.364 181.943 118.703 182.356 119.138 182.647C119.574 182.938 120.085 183.093 120.609 183.093C121.311 183.093 121.984 182.814 122.481 182.318C122.977 181.821 123.256 181.148 123.256 180.446V180.446Z"
          stroke="black" stroke-width="1.02486" stroke-linecap="round" stroke-linejoin="round"/>
    <path d="M125.864 197.548H153.917" stroke="black" stroke-width="1.02486" stroke-linecap="round"
          stroke-linejoin="round"/>
    <path d="M120.609 199.988C122.065 199.988 123.246 198.807 123.246 197.351C123.246 195.895 122.065 194.714 120.609 194.714C119.153 194.714 117.972 195.895 117.972 197.351C117.972 198.807 119.153 199.988 120.609 199.988Z"
          stroke="black" stroke-width="1.02486" stroke-linecap="round" stroke-linejoin="round"/>
    <path d="M199.447 289.768L181.056 306.939C178.8 304.521 177.043 301.682 175.884 298.584C174.726 295.487 174.189 292.192 174.304 288.887C174.419 285.582 175.184 282.332 176.555 279.322C177.927 276.313 179.877 273.603 182.296 271.348C186.905 266.919 193.076 264.49 199.467 264.588L199.447 289.768Z"
          fill="#A1A1A1"/>
    <path d="M199.447 289.768L222.079 278.728C224.705 284.146 225.303 290.327 223.763 296.148C222.224 301.969 218.649 307.046 213.688 310.458C208.726 313.87 202.707 315.391 196.72 314.745C190.733 314.1 185.176 311.33 181.056 306.939L199.447 289.768Z"
          fill="#007BFF"/>
    <path d="M199.447 289.768V264.588C204.186 264.485 208.853 265.769 212.873 268.28C216.894 270.792 220.093 274.423 222.079 278.728L199.447 289.768Z"
          fill="#263238"/>
    <path d="M176.067 115.01V115.856C176.067 116.506 176.362 116.742 176.815 116.742C177.268 116.742 177.553 116.506 177.553 115.856V113.888C177.553 113.229 177.268 112.983 176.815 112.983C176.362 112.983 176.067 113.229 176.067 113.888V114.144H174.719L174.975 108.87H178.753V110.169H176.264L176.146 112.343C176.273 112.128 176.457 111.952 176.677 111.834C176.898 111.716 177.146 111.661 177.396 111.674C178.448 111.674 178.98 112.422 178.98 113.76V115.787C178.98 117.244 178.261 118.07 176.854 118.07C176.554 118.1 176.25 118.06 175.967 117.954C175.684 117.847 175.429 117.677 175.223 117.456C175.016 117.235 174.863 116.97 174.776 116.681C174.689 116.391 174.669 116.085 174.719 115.787V115.03L176.067 115.01Z"
          fill="#263238"/>
    <path d="M180.82 109.992C181.178 110.036 181.539 109.942 181.832 109.731C182.124 109.519 182.325 109.204 182.394 108.85H183.378V117.952H181.942V111.005H180.84L180.82 109.992Z"
          fill="#263238"/>
    <path d="M186.96 114.321L186.517 115.158V117.952H185.091V108.85H186.517V112.786L188.387 108.85H189.824L187.856 112.904L189.824 117.952H188.348L186.96 114.321Z"
          fill="#263238"/>
    <path d="M175.575 103.95H188.318" stroke="black" stroke-width="1.02486" stroke-linecap="round"
          stroke-linejoin="round"/>
    <path d="M234.428 108.939V108.24H235.599V108.919C236.583 109.126 237.134 109.903 237.134 111.143V111.428H235.786V111.054C235.786 110.405 235.521 110.159 235.068 110.159C234.615 110.159 234.35 110.405 234.35 111.054C234.35 112.924 237.144 113.022 237.144 115.62C237.223 116.119 237.106 116.63 236.819 117.046C236.531 117.462 236.094 117.751 235.599 117.854V118.513H234.428V117.854C233.933 117.751 233.496 117.462 233.209 117.046C232.921 116.63 232.805 116.119 232.883 115.62V114.99H234.192V115.709C234.192 116.358 234.477 116.594 234.94 116.594C235.402 116.594 235.678 116.358 235.678 115.709C235.678 113.839 232.883 113.741 232.883 111.143C232.923 109.942 233.425 109.155 234.428 108.939Z"
          fill="#263238"/>
    <path d="M239.397 115.01V115.856C239.397 116.506 239.683 116.742 240.135 116.742C240.588 116.742 240.883 116.506 240.883 115.856V113.888C240.883 113.229 240.598 112.983 240.135 112.983C239.673 112.983 239.397 113.229 239.397 113.888V114.144H238.049L238.305 108.87H242.064V110.169H239.584L239.466 112.343C239.593 112.127 239.776 111.951 239.997 111.833C240.217 111.715 240.466 111.66 240.716 111.674C241.769 111.674 242.3 112.422 242.3 113.76V115.787C242.35 116.085 242.331 116.391 242.243 116.681C242.156 116.97 242.003 117.235 241.796 117.456C241.59 117.677 241.335 117.847 241.052 117.954C240.769 118.06 240.466 118.1 240.165 118.07C238.768 118.07 238.04 117.244 238.04 115.787V115.03L239.397 115.01Z"
          fill="#263238"/>
    <path d="M244.15 109.992C244.508 110.036 244.87 109.942 245.162 109.731C245.454 109.519 245.655 109.204 245.725 108.85H246.709V117.952H245.282V111.005H244.18L244.15 109.992Z"
          fill="#263238"/>
    <path d="M250.29 114.321L249.848 115.158V117.952H248.411V108.85H249.848V112.786L251.717 108.85H253.144L251.176 112.904L253.144 117.952H251.678L250.29 114.321Z"
          fill="#263238"/>
    <path d="M236.691 103.95H249.434" stroke="black" stroke-width="1.02486" stroke-linecap="round"
          stroke-linejoin="round"/>
    <path d="M291.854 111.035C291.854 110.458 292.084 109.905 292.491 109.497C292.899 109.089 293.452 108.86 294.029 108.86C294.606 108.86 295.159 109.089 295.567 109.497C295.975 109.905 296.204 110.458 296.204 111.035V115.768C296.204 116.344 295.975 116.897 295.567 117.305C295.159 117.713 294.606 117.942 294.029 117.942C293.452 117.942 292.899 117.713 292.491 117.305C292.084 116.897 291.854 116.344 291.854 115.768V111.035ZM293.291 115.856C293.291 116.506 293.576 116.752 294.029 116.752C294.482 116.752 294.767 116.506 294.767 115.856V110.936C294.767 110.277 294.482 110.031 294.029 110.031C293.576 110.031 293.291 110.277 293.291 110.936V115.856Z"
          fill="#263238"/>
    <path d="M298.506 116.574V117.952H297.168V116.574H298.506Z" fill="#263238"/>
    <path d="M302.304 111.084C302.304 110.267 302.019 110.041 301.566 110.041C301.114 110.041 300.819 110.287 300.819 110.946V111.527H299.471V111.035C299.471 109.578 300.199 108.742 301.606 108.742C303.013 108.742 303.731 109.578 303.731 111.035V111.271C303.788 111.647 303.723 112.031 303.546 112.367C303.369 112.704 303.089 112.974 302.747 113.14C303.089 113.318 303.366 113.597 303.543 113.938C303.719 114.28 303.785 114.668 303.731 115.049V115.768C303.731 117.224 303.003 118.05 301.606 118.05C301.305 118.08 301.001 118.04 300.718 117.934C300.435 117.827 300.181 117.657 299.974 117.436C299.768 117.216 299.615 116.95 299.528 116.661C299.44 116.371 299.421 116.066 299.471 115.768V115.01H300.819V115.856C300.819 116.506 301.104 116.752 301.566 116.752C302.029 116.752 302.304 116.535 302.304 115.768V115.049C302.304 114.203 302.019 113.898 301.32 113.898H300.838V112.589H301.399C301.931 112.589 302.255 112.363 302.255 111.605L302.304 111.084Z"
          fill="#263238"/>
    <path d="M304.617 110.208C304.617 109.843 304.762 109.492 305.02 109.234C305.279 108.976 305.629 108.83 305.995 108.83C306.36 108.83 306.71 108.976 306.969 109.234C307.227 109.492 307.372 109.843 307.372 110.208V113.16C307.372 113.525 307.227 113.876 306.969 114.134C306.71 114.392 306.36 114.538 305.995 114.538C305.629 114.538 305.279 114.392 305.02 114.134C304.762 113.876 304.617 113.525 304.617 113.16V110.208ZM305.532 113.268C305.532 113.672 305.699 113.839 305.995 113.839C306.29 113.839 306.467 113.672 306.467 113.268V110.208C306.467 109.805 306.28 109.627 305.995 109.627C305.709 109.627 305.532 109.805 305.532 110.208V113.268ZM309.586 108.821H310.432L306.841 117.923H306.024L309.586 108.821ZM309.133 113.534C309.133 113.169 309.279 112.818 309.537 112.56C309.795 112.301 310.146 112.156 310.511 112.156C310.876 112.156 311.227 112.301 311.485 112.56C311.744 112.818 311.889 113.169 311.889 113.534V116.486C311.889 116.851 311.744 117.202 311.485 117.46C311.227 117.718 310.876 117.864 310.511 117.864C310.146 117.864 309.795 117.718 309.537 117.46C309.279 117.202 309.133 116.851 309.133 116.486V113.534ZM310.039 116.594C310.039 116.998 310.216 117.165 310.511 117.165C310.806 117.165 310.974 116.998 310.974 116.594V113.475C310.974 113.071 310.796 112.904 310.511 112.904C310.226 112.904 310.039 113.071 310.039 113.475V116.594Z"
          fill="#263238"/>
    <path d="M295.505 103.95H308.248" stroke="black" stroke-width="1.02486" stroke-linecap="round"
          stroke-linejoin="round"/>
    <path d="M176.067 240.096V240.942C176.067 241.592 176.362 241.828 176.815 241.828C177.268 241.828 177.553 241.592 177.553 240.942V238.974C177.553 238.325 177.268 238.079 176.815 238.079C176.362 238.079 176.067 238.325 176.067 238.974V239.25H174.719L174.975 233.966H178.753V235.176H176.264L176.146 237.341C176.276 237.129 176.461 236.956 176.68 236.84C176.9 236.724 177.147 236.669 177.395 236.682C178.448 236.682 178.98 237.42 178.98 238.758V240.785C178.98 242.241 178.261 243.078 176.854 243.078C175.447 243.078 174.719 242.241 174.719 240.785V240.096H176.067Z"
          fill="#263238"/>
    <path d="M180.82 235.038C181.18 235.084 181.544 234.991 181.837 234.777C182.13 234.562 182.329 234.244 182.394 233.887H183.378V242.989H181.942V236.052H180.84L180.82 235.038Z"
          fill="#263238"/>
    <path d="M186.96 239.368L186.517 240.194V242.989H185.091V233.887H186.517V237.823L188.387 233.887H189.824L187.856 237.951L189.824 242.989H188.348L186.96 239.368Z"
          fill="#263238"/>
    <path d="M175.575 228.987H188.318" stroke="black" stroke-width="1.02486" stroke-linecap="round"
          stroke-linejoin="round"/>
    <path d="M174.109 248.755H189.971" stroke="black" stroke-width="1.02486" stroke-linecap="round"
          stroke-linejoin="round"/>
    <path d="M174.109 253.026H189.971" stroke="black" stroke-width="1.02486" stroke-linecap="round"
          stroke-linejoin="round"/>
    <path d="M295.731 449.708C340.289 449.708 376.41 442.033 376.41 432.566C376.41 423.1 340.289 415.425 295.731 415.425C251.174 415.425 215.053 423.1 215.053 432.566C215.053 442.033 251.174 449.708 295.731 449.708Z"
          fill="#007BFF"/>
    <path opacity="0.5"
          d="M295.731 449.708C340.289 449.708 376.41 442.033 376.41 432.566C376.41 423.1 340.289 415.425 295.731 415.425C251.174 415.425 215.053 423.1 215.053 432.566C215.053 442.033 251.174 449.708 295.731 449.708Z"
          fill="white"/>
    <path d="M298.743 208.116L300.632 215.034L291.402 260.544L296.853 270.61L306.083 261.173L303.781 215.034L308.179 209.376L303.357 202.242L298.743 208.116Z"
          fill="white" stroke="#263238" stroke-width="1.02486" stroke-linecap="round" stroke-linejoin="round"/>
    <path d="M283.166 416.114C283.166 416.114 265.887 427.056 265.887 429.644C265.887 432.232 272.273 429.644 281.631 425.137C290.989 420.63 293.882 420.719 289.444 415.415C285.006 410.112 283.166 416.114 283.166 416.114Z"
          fill="white" stroke="#263238" stroke-width="1.02486" stroke-linecap="round" stroke-linejoin="round"/>
    <path d="M318.865 417.993C318.865 417.993 320.371 434.151 324.13 438.283C327.889 442.416 330.516 435.656 329.768 431.523C329.02 427.391 324.848 418.731 324.848 418.731C324.848 418.731 321.502 414.264 318.865 417.993Z"
          fill="white" stroke="#263238" stroke-width="1.02486" stroke-linecap="round" stroke-linejoin="round"/>
    <path d="M275.284 265.434C273.849 277.518 273.093 289.673 273.021 301.842C273.021 320.627 270.767 336.784 271.525 345.433C272.184 353.03 279.525 403.637 281.286 415.74C281.401 416.515 281.734 417.241 282.246 417.834C282.758 418.426 283.429 418.86 284.179 419.086C284.776 419.265 285.405 419.307 286.02 419.208C286.635 419.11 287.22 418.873 287.73 418.516C288.24 418.159 288.663 417.691 288.967 417.147C289.27 416.603 289.447 415.998 289.483 415.376L293.694 342.432L299.333 299.215C299.333 299.215 303.839 354.83 305.345 364.228C306.624 372.228 315.529 408.577 318.137 419.184C318.395 420.299 318.951 421.323 319.744 422.148C320.538 422.972 321.54 423.567 322.644 423.868C322.881 423.934 323.126 423.971 323.372 423.976C324.356 423.976 325.399 421.742 325.95 420.296C326.231 419.564 326.377 418.787 326.383 418.003L326.747 346.939L327.505 292.455C327.505 292.455 329.679 277.586 328.587 270.925C327.495 264.263 275.284 265.434 275.284 265.434Z"
          fill="#263238" stroke="#263238" stroke-width="1.02486" stroke-linecap="round" stroke-linejoin="round"/>
    <path d="M298.201 297.749L286.551 292.484" stroke="white" stroke-width="1.02486" stroke-linecap="round"
          stroke-linejoin="round"/>
    <path d="M234.192 226.448L230.905 225.051C225.749 224.067 224.017 217.562 224.017 217.562C224.017 217.562 220.623 220.613 219.097 219.629C217.572 218.645 222.906 214.797 222.906 214.797C222.906 214.797 214.492 219.088 213.184 218.123C211.875 217.159 219.688 212.8 219.688 212.8C219.688 212.8 209.799 215.909 209.159 214.414C208.519 212.918 226.733 206.315 229.538 206.64C232.342 206.965 234.064 213.046 235.038 215.191C236.012 217.336 237.351 219.717 237.351 219.717L239.201 222.059L260.327 237.577C260.327 237.577 278.846 197.617 280.548 195.668C282.251 193.72 301.753 192.018 301.753 192.018L303.21 191.772C303.21 191.772 308.327 192.018 314.417 192.992C320.508 193.966 338.299 203.226 338.299 203.226L328.548 265.601V270.954C328.47 271.621 328.231 272.258 327.85 272.81C327.469 273.363 326.959 273.813 326.363 274.123C325.143 274.851 276.898 269.734 276.898 269.734C276.898 269.734 273.946 269.498 273.729 268.032C273.513 266.566 275.923 246.384 275.923 246.384C275.923 246.384 268.612 254.423 266.418 254.669C264.529 254.886 243.038 234.989 235.265 227.707L234.192 226.448Z"
          fill="white" stroke="#263238" stroke-width="1.02486" stroke-linecap="round" stroke-linejoin="round"/>
    <path d="M326.412 274.123C327.008 273.813 327.518 273.363 327.899 272.81C328.28 272.258 328.52 271.621 328.597 270.954V265.601L338.348 203.226C338.348 203.226 320.558 193.966 314.467 192.992C308.376 192.018 303.259 191.772 303.259 191.772L301.803 192.018C301.803 192.018 282.31 193.72 280.597 195.668C279.141 197.331 265.424 226.723 261.449 235.265L269.98 252.307C272.775 249.857 275.973 246.344 275.973 246.344C275.973 246.344 273.532 266.575 273.778 267.992C274.024 269.409 276.947 269.695 276.947 269.695C276.947 269.695 325.192 274.851 326.412 274.123Z"
          fill="white" stroke="#263238" stroke-width="1.02486" stroke-linecap="round" stroke-linejoin="round"/>
    <path d="M275.973 246.344L281.759 209.995" stroke="#263238" stroke-width="1.02486" stroke-linecap="round"
          stroke-linejoin="round"/>
    <path d="M260.376 237.577C260.376 237.577 267.491 252.386 267.491 253.734C267.491 255.082 270.521 254.718 270.521 254.718C270.521 254.718 275.225 251.353 274.89 247.663C274.556 243.973 264.804 228.495 264.804 228.495C264.804 228.495 258.979 231.171 260.376 237.577Z"
          fill="white" stroke="#263238" stroke-width="1.02486" stroke-linecap="round" stroke-linejoin="round"/>
    <path d="M204.446 205.007L239.476 208.273C240.942 208.411 242.084 209.257 241.975 210.173C241.867 211.078 240.549 211.658 239.073 211.442L204.278 206.335C203.708 206.256 203.294 205.912 203.294 205.558C203.373 205.194 203.865 204.957 204.446 205.007Z"
          fill="#263238" stroke="#263238" stroke-width="1.02486" stroke-linecap="round" stroke-linejoin="round"/>
    <path d="M232.401 217.316C232.401 217.316 229.311 209.041 228.308 208.923C227.304 208.805 215.368 206.807 214.876 207.565C214.384 208.323 213.666 209.248 214.797 209.986C215.929 210.724 223.525 213.439 223.525 213.439C223.525 213.439 223.525 220.14 228.623 221.941"
          fill="white"/>
    <path d="M232.401 217.316C232.401 217.316 229.311 209.041 228.308 208.923C227.304 208.805 215.368 206.807 214.876 207.565C214.384 208.323 213.666 209.248 214.797 209.986C215.929 210.724 223.525 213.439 223.525 213.439C223.525 213.439 223.525 220.14 228.623 221.941"
          stroke="#263238" stroke-width="1.02486" stroke-linecap="round" stroke-linejoin="round"/>
    <path d="M229.479 206.748C229.479 206.748 227.019 203.639 224.263 203.796C221.508 203.954 214.04 204.544 216.746 205.646C219.452 206.748 229.479 206.748 229.479 206.748Z"
          fill="white" stroke="#263238" stroke-width="1.02486" stroke-linecap="round" stroke-linejoin="round"/>
    <path d="M304.233 187.875C304.233 187.875 300.829 189.331 300.297 191.526C299.766 193.72 298.831 202.98 296.647 205.902C295.507 207.288 294.599 208.85 293.96 210.527L302.737 207.575L312.479 218.783C313.569 214.221 315.218 209.812 317.389 205.656C320.558 200.057 322.752 198.591 322.752 193.966C322.752 189.341 316.907 187.137 315.195 186.901C313.483 186.665 304.233 187.875 304.233 187.875Z"
          fill="white" stroke="#263238" stroke-width="1.02486" stroke-linecap="round" stroke-linejoin="round"/>
    <path d="M292.051 151.812C292.051 151.812 290.595 157.41 291.569 158.631C292.543 159.851 293.271 162.567 292.297 163.993C291.323 165.42 288.883 168.136 289.129 168.913C289.375 169.691 293.271 171.6 293.271 171.6C293.271 171.6 293.517 182.808 295.466 183.536C297.414 184.264 302.531 184.018 302.531 184.018L302.777 207.634L318.609 191.801L318.127 175.959C318.127 175.959 322.998 173.528 324.218 171.334C325.438 169.14 323.48 164.269 323.48 164.269C323.48 164.269 322.998 153.061 322.998 151.841C322.868 149.731 321.939 147.749 320.4 146.3C318.86 144.85 316.827 144.041 314.713 144.038C307.648 143.772 292.051 151.812 292.051 151.812Z"
          fill="white" stroke="#263238" stroke-width="1.02486" stroke-linecap="round" stroke-linejoin="round"/>
    <path d="M298.388 162.409C298.388 163.285 297.955 163.993 297.404 163.993C296.853 163.993 296.42 163.285 296.42 162.409C296.42 161.533 296.853 160.825 297.404 160.825C297.955 160.825 298.388 161.533 298.388 162.409Z"
          fill="#263238"/>
    <path d="M295.2 159.851C295.2 159.851 297.64 157.656 300.317 160.579" stroke="#263238" stroke-width="1.02486"
          stroke-linecap="round" stroke-linejoin="round"/>
    <path d="M302.531 184.008C302.531 184.008 310.57 182.306 313.493 178.163" stroke="#263238" stroke-width="1.02486"
          stroke-linecap="round" stroke-linejoin="round"/>
    <path d="M313.493 149.371C313.493 149.371 293.517 154.006 289.375 153.514C285.232 153.022 282.064 144.746 285.439 140.604C288.814 136.461 304.686 134.267 312.233 136.461C319.78 138.655 330.024 144.008 329.296 147.423C328.567 150.837 323.441 164.239 323.441 164.239C323.441 164.239 319.298 162.045 318.088 164.476C317.458 165.634 316.966 166.863 316.622 168.136C316.622 168.136 315.894 169.838 314.919 168.136C313.945 166.434 313.935 164.722 311.967 161.799C309.999 158.877 306.605 155.708 308.031 154.242C309.458 152.776 313.493 149.371 313.493 149.371Z"
          fill="#263238" stroke="#263238" stroke-width="1.02486" stroke-linecap="round" stroke-linejoin="round"/>
    <path d="M261.449 235.265L277.242 263.476L303.8 265.493L289.345 235.914L261.449 235.265Z" fill="#007BFF"
          stroke="#263238" stroke-width="1.02486" stroke-linecap="round" stroke-linejoin="round"/>
    <path d="M324.976 219.776L331.027 253.734L350.52 257.808C350.52 257.808 345.482 209.405 344.134 206.384C342.786 203.363 334.048 201.002 333.045 201.002"
          fill="white"/>
    <path d="M324.976 219.776L331.027 253.734L350.52 257.808C350.52 257.808 345.482 209.405 344.134 206.384C342.786 203.363 334.048 201.002 333.045 201.002"
          stroke="#263238" stroke-width="1.02486" stroke-linecap="round" stroke-linejoin="round"/>
    <path d="M326.324 253.055C326.324 253.055 327.997 244.652 332.031 243.983C336.066 243.314 347.834 242.635 350.521 249.021C353.207 255.407 353.551 259.107 351.505 261.459C349.458 263.81 344.439 262.138 336.745 259.776C329.05 257.414 326.324 253.055 326.324 253.055Z"
          fill="white" stroke="#263238" stroke-width="1.02486" stroke-linecap="round" stroke-linejoin="round"/>
    <path d="M308.622 250.251L295.466 246.59L282.31 253.173C282.31 253.173 280.598 254.157 281.572 255.141C282.546 256.125 284.258 255.387 284.258 255.387C284.258 255.387 283.274 256.844 284.258 257.572C285.242 258.3 290.831 256.588 290.831 256.588C290.831 256.588 285.478 260.248 287.181 260.976C288.883 261.705 296.686 257.808 296.686 257.808L292.307 261.557C292.213 261.634 292.14 261.735 292.097 261.849C292.054 261.962 292.041 262.086 292.06 262.206C292.079 262.326 292.129 262.44 292.205 262.535C292.281 262.63 292.381 262.703 292.494 262.748C292.903 262.948 293.369 263 293.813 262.895C295.515 262.659 301.586 258.093 301.586 258.093H310.816C310.816 258.093 343.219 264.912 347.608 264.666C351.997 264.42 352.725 256.391 349.802 252.731C346.88 249.07 340.051 249.562 338.349 249.562C336.646 249.562 308.622 250.251 308.622 250.251Z"
          fill="white" stroke="#263238" stroke-width="1.02486" stroke-linecap="round" stroke-linejoin="round"/>
    <path d="M284.258 255.368L290.831 252.927" stroke="#263238" stroke-width="1.02486" stroke-linecap="round"
          stroke-linejoin="round"/>
    <path d="M290.831 256.578L294 255.368" stroke="#263238" stroke-width="1.02486" stroke-linecap="round"
          stroke-linejoin="round"/>
    <path d="M269.38 235.796L271.899 239.574L282.172 239.988L279.663 236.003L269.38 235.796Z" fill="white"
          stroke="#263238" stroke-width="1.02486" stroke-linecap="round" stroke-linejoin="round"/>
</svg>
