<svg width="154" height="112" viewBox="0 0 154 112" fill="none" xmlns="http://www.w3.org/2000/svg">
    <path d="M27.84 78.08L17.6 106H10.8L0.56 78.08H6.56L14.24 100.28L21.88 78.08H27.84ZM36.7975 82.6V89.6H46.1975V94.04H36.7975V101.44H47.3975V106H31.1975V78.04H47.3975V82.6H36.7975ZM76.3666 106H70.7666L58.0866 86.84V106H52.4866V78.04H58.0866L70.7666 97.24V78.04H76.3666V106ZM100.901 78.08V82.6H93.4606V106H87.8606V82.6H80.4206V78.08H100.901ZM119.387 106L113.227 95.12H110.587V106H104.987V78.08H115.467C117.627 78.08 119.467 78.4667 120.987 79.24C122.507 79.9867 123.64 81.0133 124.387 82.32C125.16 83.6 125.547 85.04 125.547 86.64C125.547 88.48 125.013 90.1467 123.947 91.64C122.88 93.1067 121.293 94.12 119.187 94.68L125.867 106H119.387ZM110.587 90.92H115.267C116.787 90.92 117.92 90.56 118.667 89.84C119.413 89.0933 119.787 88.0667 119.787 86.76C119.787 85.48 119.413 84.4933 118.667 83.8C117.92 83.08 116.787 82.72 115.267 82.72H110.587V90.92ZM152.812 78.08L143.372 96.28V106H137.772V96.28L128.292 78.08H134.612L140.612 90.84L146.572 78.08H152.812Z"
          fill="#FAFAFA"/>
    <path d="M63.6666 26.6667C63.6666 22.2485 67.2483 18.6667 71.6666 18.6667H90.3333V37.3334C90.3333 41.7517 86.7516 45.3334 82.3333 45.3334H63.6666V26.6667Z"
          fill="#FAFAFA"/>
    <line x1="49" y1="4" x2="49" y2="28" stroke="#FAFAFA" stroke-width="8" stroke-linecap="round"/>
    <line x1="73" y1="4" x2="49" y2="4" stroke="#FAFAFA" stroke-width="8" stroke-linecap="round"/>
    <line x1="105" y1="60" x2="105" y2="36" stroke="#FAFAFA" stroke-width="8" stroke-linecap="round"/>
    <line x1="81" y1="60" x2="105" y2="60" stroke="#FAFAFA" stroke-width="8" stroke-linecap="round"/>
</svg>
