<svg width="551" height="439" viewBox="0 0 551 439" fill="none" xmlns="http://www.w3.org/2000/svg">
    <path d="M550.926 416.827H14.2858V438.843H550.926V416.827Z" fill="#007BFF"/>
    <path opacity="0.5" d="M550.926 416.827H14.2858V438.843H550.926V416.827Z" fill="white"/>
    <path d="M147.923 180.692C145.297 181.546 142.72 182.542 140.204 183.678C141.58 182.66 142.956 181.628 144.332 180.568C150.468 175.648 156.304 170.364 161.807 164.744C155.353 171.025 148.455 176.833 141.167 182.123C142.162 180.374 143.044 178.563 143.809 176.701C145.116 173.275 145.432 169.821 142.157 167.991C138.14 165.735 133.255 169.106 134.548 174.871C135.325 178.089 136.842 181.081 138.979 183.609C134.229 186.896 129.269 189.87 124.132 192.512L123.636 192.759C124.729 190.879 125.689 188.925 126.512 186.911C127.82 183.499 128.136 180.031 124.861 178.215C120.843 175.945 115.958 179.33 117.252 185.095C118.021 188.273 119.513 191.23 121.614 193.736C115.436 196.777 109.037 199.364 102.694 202.171L101.772 202.584C103.014 201.252 104.164 199.836 105.212 198.346C107.29 195.332 108.39 192.058 105.638 189.498C102.253 186.361 96.7219 188.521 96.6256 194.466C96.627 197.748 97.395 200.985 98.8685 203.919C92.9327 206.674 87.2901 210.021 82.0262 213.908L81.8611 214.046C82.5722 212.918 83.2199 211.751 83.8013 210.551C85.3561 207.235 85.9341 203.822 82.8105 201.745C82.1738 201.304 81.4451 201.013 80.6795 200.895C79.9139 200.778 79.1316 200.836 78.3918 201.065C77.652 201.294 76.974 201.689 76.4093 202.219C75.8447 202.749 75.408 203.401 75.1325 204.125C74.7167 203.477 74.1501 202.939 73.4813 202.556C70.3302 200.74 67.2342 202.708 64.5923 205.487C63.9043 206.217 63.2163 206.987 62.6246 207.772C64.6701 202.08 67.2454 196.593 70.3165 191.383C73.2307 192.669 76.3779 193.344 79.5632 193.365C85.8377 193.365 88.4934 188.136 85.4112 184.889C82.9069 182.26 79.3843 183.265 76.0544 185.191C74.9534 185.831 73.8878 186.529 72.8621 187.283C76.0558 182.478 79.6805 177.973 83.6912 173.826C86.2731 175.958 89.28 177.515 92.5114 178.394C98.607 179.894 102.446 175.477 100.231 171.583C98.4419 168.418 94.7267 168.542 91.0803 169.601C89.3439 170.131 87.6394 170.761 85.9753 171.486C87.6403 169.876 89.3603 168.322 91.0941 166.78C93.392 164.827 95.7587 162.941 98.153 161.098C100.743 163.162 103.739 164.658 106.946 165.487C113.041 166.987 116.867 162.57 114.665 158.676C112.876 155.511 109.161 155.635 105.515 156.694C104.648 156.942 103.795 157.245 102.941 157.561C106.12 155.291 109.354 153.076 112.573 150.874L115.573 148.824C118.262 151.08 121.421 152.706 124.82 153.585C130.916 155.084 134.741 150.668 132.539 146.773C130.75 143.609 127.035 143.732 123.389 144.792C121.945 145.224 120.526 145.734 119.137 146.319C119.756 145.879 120.375 145.439 120.981 144.943C122.123 144.132 123.237 143.292 124.352 142.439C125.728 141.407 127.021 140.251 128.37 139.164C129.127 138.559 129.87 137.912 130.599 137.252C133.3 139.529 136.479 141.17 139.901 142.054C145.996 143.554 149.822 139.137 147.62 135.243C145.831 132.078 142.116 132.202 138.47 133.261C136.425 133.892 134.421 134.651 132.47 135.532C134.961 133.22 137.369 130.812 139.639 128.308L140.093 127.785C141.07 126.698 142.047 125.583 142.983 124.455C143.919 123.326 145.116 121.799 146.134 120.437C150.328 114.957 153.771 108.941 156.372 102.549C153.642 108.861 150.089 114.783 145.804 120.162C141.563 125.562 136.832 130.56 131.672 135.091L131.108 135.573C132.296 133.541 133.344 131.431 134.245 129.257C135.621 125.844 135.869 122.377 132.594 120.561C128.576 118.29 123.692 121.675 124.985 127.441C125.811 130.856 127.47 134.014 129.815 136.632L128.604 137.678L127.228 138.861C126.416 139.508 125.604 140.127 124.779 140.747L123.403 141.751C122.233 142.618 121.036 143.457 119.839 144.283L118.132 145.452L116.179 146.828C117.312 144.875 118.314 142.847 119.178 140.76C120.485 137.334 120.802 133.88 117.527 132.05C113.509 129.794 108.624 133.179 109.918 138.93C110.719 142.24 112.3 145.312 114.527 147.888L113.083 148.824L107.716 152.332L106.67 153.02L103.684 155.016L102.391 155.883C101.015 156.832 99.639 157.795 98.263 158.786C99.4203 156.803 100.441 154.743 101.318 152.621C102.625 149.209 102.941 145.741 99.6665 143.925C95.6486 141.655 90.7638 145.04 92.0573 150.805C92.8738 154.158 94.4882 157.264 96.7632 159.859C94.424 161.579 92.1261 163.34 89.8832 165.184C88.2458 166.56 86.6221 167.936 85.0534 169.422C85.7435 168.149 86.3547 166.835 86.8835 165.487C88.2595 162.061 88.5072 158.607 85.2323 156.791C81.2144 154.52 76.3296 157.905 77.623 163.671C78.3978 166.847 79.89 169.803 81.9849 172.312C77.5286 176.745 73.5104 181.597 69.9862 186.801C70.3885 185.299 70.6964 183.773 70.9081 182.233C71.3485 178.6 70.8256 175.188 67.2067 174.197C62.7485 172.972 58.8269 177.431 61.4825 182.742C63.014 185.663 65.1989 188.192 67.8672 190.131C64.415 195.8 61.5211 201.791 59.2259 208.019C59.1787 206.719 59.05 205.423 58.8406 204.139C58.2352 200.52 56.7629 197.396 53.0064 197.465C48.3968 197.562 45.9062 202.969 49.9517 207.29C52.1237 209.545 54.7698 211.288 57.6985 212.395C56.1373 217.21 54.86 222.112 53.8733 227.077C53.7219 227.861 53.5981 228.645 53.4467 229.43C53.2816 229.581 53.1165 229.732 52.9651 229.898C52.8 229.223 52.6073 228.522 52.3872 227.875C51.2313 224.407 49.2912 221.532 45.6035 222.192C41.049 222.976 39.4115 228.687 44.0899 232.361C46.475 234.172 49.2194 235.453 52.1395 236.117L52.3046 236.516C51.8093 240.245 51.424 244.002 51.1901 247.772C51.0112 250.524 50.9149 253.4 50.8598 256.22C46.9245 256.22 44.145 260.541 46.8557 265.22C48.0021 267.158 49.4675 268.888 51.1901 270.338C51.5203 275.636 52.0432 280.933 52.7449 286.19C52.1878 285.676 51.5068 285.316 50.7687 285.145C50.0306 284.974 49.2607 284.997 48.5344 285.213C46.0576 285.887 44.943 287.882 44.5302 290.332C43.6619 291.252 43.1709 292.465 43.1542 293.73C41.3104 290.978 39.5766 288.226 37.8842 285.309C40.463 283.333 42.6002 280.84 44.1587 277.989C47.1309 272.485 43.7872 267.655 39.4666 268.825C35.9578 269.774 35.1734 273.365 35.3386 277.204C35.3916 278.661 35.5294 280.113 35.7514 281.553C35.1322 280.493 34.5267 279.42 33.935 278.36C32.4214 275.608 31.183 272.856 29.697 270.104C29.3392 269.43 29.0227 268.728 28.72 268.04C31.6234 266.587 34.1879 264.538 36.2467 262.027C40.1958 257.156 37.8153 251.804 33.3571 252.148C29.7382 252.436 28.2934 255.808 27.688 259.605C27.4345 261.259 27.2874 262.928 27.2477 264.6L25.9542 261.614C23.2036 254.839 20.9366 247.878 19.1706 240.782C22.4492 239.614 25.4285 237.734 27.8944 235.278C32.3113 230.806 30.4813 225.26 26.0093 225.15C22.3766 225.068 20.6016 228.274 19.6109 232.03C19.1243 234.025 18.7567 236.047 18.5101 238.085C17.5606 233.957 16.735 229.898 16.047 225.77C15.5792 223.21 15.2765 220.61 14.9462 218.023C18.4772 217.323 21.8035 215.832 24.6746 213.661C29.6282 209.808 28.5273 204.029 24.1104 203.382C20.519 202.818 18.345 205.776 16.8864 209.34C16.0271 211.587 15.3056 213.885 14.7261 216.22C14.4509 213.22 14.1344 210.207 13.9968 207.194C13.6046 200.97 13.6322 194.727 14.0794 188.508C13.4441 194.724 13.2281 200.976 13.4326 207.221C13.4326 210.097 13.6803 212.959 13.8592 215.835C13.0699 213.881 12.1505 211.983 11.1072 210.152C9.22207 207.001 6.73151 204.648 3.25023 206.024C-1.01537 207.785 -1.38689 213.702 3.96575 216.289C7.11875 217.733 10.5753 218.389 14.0381 218.202C14.2858 220.761 14.4922 223.334 14.8912 225.88C15.4278 229.939 16.1158 233.971 16.9139 237.975C16.0432 236.438 15.0686 234.962 13.9968 233.558C11.7264 230.682 8.93312 228.645 5.7408 230.503C1.73664 232.801 2.13568 238.759 7.77728 240.589C10.9771 241.585 14.3669 241.811 17.6707 241.25C19.2361 248.425 21.3005 255.483 23.849 262.371L24.6746 264.435C23.9462 263.471 23.1605 262.552 22.3216 261.683C19.776 259.041 16.8176 257.294 13.7354 259.482C9.97887 262.165 10.9834 268.013 16.7763 269.306C19.9882 269.96 23.3074 269.866 26.4771 269.031C26.7523 269.733 27.055 270.407 27.399 271.123C28.775 273.957 29.9997 276.86 31.4445 279.64L32.6966 282.02C31.9848 281.395 31.2407 280.807 30.4675 280.259C27.4678 278.154 24.2205 276.998 21.6198 279.709C18.4413 283.053 20.5053 288.612 26.4496 288.79C29.4908 288.871 32.5135 288.293 35.311 287.098C37.0035 290.18 38.7648 293.221 40.6637 296.207C41.3654 297.349 42.0397 298.477 42.8377 299.606C41.7578 298.592 40.6133 297.65 39.4115 296.785C36.4256 294.68 33.1645 293.524 30.5776 296.235C27.3853 299.578 29.463 305.137 35.4074 305.316C38.8047 305.355 42.1626 304.587 45.2045 303.073C46.1768 304.449 47.1951 305.825 48.2592 307.201C46.0438 309.774 46.7593 314.081 51.2589 316.049C53.4454 316.956 55.7739 317.473 58.1389 317.576L58.992 318.223L59.1434 318.333C61.9839 328.962 65.3547 339.442 69.2432 349.733C70.9036 354.127 72.6557 358.48 74.4995 362.792H57.9875V427.918H108.432V362.778H81.4758C79.1779 357.756 76.9763 352.678 74.9123 347.546C71.5411 339.111 68.4864 330.566 65.8169 321.883C66.2682 322.019 66.7278 322.125 67.1929 322.2C67.8045 322.321 68.4307 322.348 69.0505 322.282L68.335 317.755H68.2387H67.8534C67.6057 317.755 67.2755 317.631 66.9865 317.59C66.3543 317.411 65.7377 317.181 65.1427 316.902L64.4272 316.572C67.079 315.647 69.5407 314.249 71.6925 312.444C76.4809 308.316 75.1187 302.674 70.6742 302.193C67.0554 301.794 65.0189 304.848 63.7942 308.467C63.4227 309.499 63.12 310.573 62.8448 311.618C62.5971 310.655 62.3219 309.692 62.088 308.729C61.3587 305.88 60.712 303.005 60.0515 300.129C62.9267 299.213 65.5956 297.746 67.9085 295.808C72.6969 291.68 71.3347 286.052 66.8902 285.571C63.2713 285.172 61.2349 288.226 60.0102 291.845C59.6352 292.897 59.3137 293.967 59.047 295.051C58.6342 292.946 58.2214 290.854 57.8637 288.749C57.5885 287.181 57.3545 285.626 57.1206 284.057C57.0243 281.828 56.9968 279.599 57.0243 277.356C57.0243 276.131 57.0243 274.907 57.1344 273.668C59.8298 274.532 62.6605 274.896 65.4867 274.741C71.7475 274.329 74.0729 268.962 70.7981 265.921C68.1286 263.431 64.6749 264.669 61.4688 266.788C60.0287 267.762 58.6501 268.823 57.3408 269.967C57.7215 264.73 58.5129 259.531 59.7075 254.418C60.4207 251.408 61.3027 248.44 62.3494 245.529C65.2254 246.525 68.2682 246.951 71.3072 246.781C77.568 246.382 79.8934 241.016 76.6185 237.961C73.9491 235.484 70.4953 236.709 67.2893 238.842C66.1507 239.609 65.053 240.436 64.0006 241.318C65.2045 238.469 66.6116 235.71 68.2112 233.062C71.4128 227.74 75.4132 222.942 80.0723 218.835C82.4659 221.052 85.2969 222.744 88.3834 223.802C94.3414 225.756 98.497 221.628 96.6394 217.582C95.0982 214.294 91.4243 214.142 87.6678 214.927C86.2385 215.235 84.828 215.626 83.4435 216.096L83.5261 216.014C88.6603 212.007 94.1935 208.539 100.038 205.666C102.093 208.372 104.713 210.598 107.716 212.188C113.289 215.064 118.05 211.652 116.812 207.359C115.807 203.864 112.216 203.134 108.363 203.231C106.86 203.318 105.363 203.483 103.877 203.726C110.069 200.795 116.412 198.029 122.508 194.796L122.632 194.727C125.37 197.084 128.614 198.779 132.113 199.681C138.208 201.194 142.047 196.764 139.846 192.869C138.043 189.705 134.342 189.842 130.682 190.888C129.65 191.191 128.618 191.562 127.627 191.948C131.701 189.574 135.651 186.993 139.46 184.214L139.791 184.558C139.783 184.508 139.783 184.457 139.791 184.407C142.548 186.789 145.815 188.507 149.34 189.429C155.436 190.929 159.261 186.512 157.06 182.618C155.284 179.495 151.624 179.632 147.923 180.692ZM51.713 305.371C50.4746 303.899 49.2912 302.385 48.1216 300.844C48.4105 300.596 48.7133 300.321 49.016 300.019C50.7307 300.555 52.5058 300.873 54.2998 300.968C54.2998 301.064 54.2998 301.161 54.2998 301.257L55.1392 301.078C55.5657 303.252 56.0336 305.413 56.5152 307.573C55.9528 306.844 55.2219 306.264 54.3854 305.88C53.549 305.497 52.6318 305.322 51.713 305.371ZM56.2125 253.565C55.7859 255.175 55.4144 256.812 55.0841 258.45C55.022 258.345 54.9481 258.248 54.864 258.161C54.864 254.803 54.919 251.455 55.0291 248.116C55.1254 245.777 55.2906 243.451 55.497 241.112C56.6231 242.272 57.8684 243.309 59.2121 244.208C58.0287 247.265 57.027 250.389 56.2125 253.565ZM61.8541 238.154C61.8541 237.548 61.9917 236.929 62.033 236.324C62.033 236.007 62.033 235.704 62.033 235.402C62.5283 235.25 63.0237 235.071 63.5328 234.865C62.9549 235.952 62.3907 237.039 61.8541 238.154ZM69.023 226.513C68.7789 225.972 68.4292 225.485 67.9944 225.081C67.5596 224.677 67.0486 224.364 66.4912 224.16C63.1062 222.784 60.3405 225.26 58.1526 228.425L58.0563 228.577H57.8361C57.6054 228.524 57.3706 228.492 57.1344 228.48C57.1344 228.288 57.1344 228.095 57.2307 227.902C58.1038 222.938 59.2756 218.03 60.7395 213.207C63.8983 213.605 67.1051 213.357 70.1651 212.477C72.0365 211.996 73.6756 210.865 74.7885 209.285C75.4 212.055 76.5501 214.678 78.1734 217.004C74.7982 219.859 71.7313 223.06 69.023 226.554V226.513Z"
          fill="#007BFF"/>
    <path opacity="0.5"
          d="M147.923 180.692C145.297 181.546 142.72 182.542 140.204 183.678C141.58 182.66 142.956 181.628 144.332 180.568C150.468 175.648 156.304 170.364 161.807 164.744C155.353 171.025 148.455 176.833 141.167 182.123C142.162 180.374 143.044 178.563 143.809 176.701C145.116 173.275 145.432 169.821 142.157 167.991C138.14 165.735 133.255 169.106 134.548 174.871C135.325 178.089 136.842 181.081 138.979 183.609C134.229 186.896 129.269 189.87 124.132 192.512L123.636 192.759C124.729 190.879 125.689 188.925 126.512 186.911C127.82 183.499 128.136 180.031 124.861 178.215C120.843 175.945 115.958 179.33 117.252 185.095C118.021 188.273 119.513 191.23 121.614 193.736C115.436 196.777 109.037 199.364 102.694 202.171L101.772 202.584C103.014 201.252 104.164 199.836 105.212 198.346C107.29 195.332 108.39 192.058 105.638 189.498C102.253 186.361 96.7219 188.521 96.6256 194.466C96.627 197.748 97.395 200.985 98.8685 203.919C92.9327 206.674 87.2901 210.021 82.0262 213.908L81.8611 214.046C82.5722 212.918 83.2199 211.751 83.8013 210.551C85.3561 207.235 85.9341 203.822 82.8105 201.745C82.1738 201.304 81.4451 201.013 80.6795 200.895C79.9139 200.778 79.1316 200.836 78.3918 201.065C77.652 201.294 76.974 201.689 76.4093 202.219C75.8447 202.749 75.408 203.401 75.1325 204.125C74.7167 203.477 74.1501 202.939 73.4813 202.556C70.3302 200.74 67.2342 202.708 64.5923 205.487C63.9043 206.217 63.2163 206.987 62.6246 207.772C64.6701 202.08 67.2454 196.593 70.3165 191.383C73.2307 192.669 76.3779 193.344 79.5632 193.365C85.8377 193.365 88.4934 188.136 85.4112 184.889C82.9069 182.26 79.3843 183.265 76.0544 185.191C74.9534 185.831 73.8878 186.529 72.8621 187.283C76.0558 182.478 79.6805 177.973 83.6912 173.826C86.2731 175.958 89.28 177.515 92.5114 178.394C98.607 179.894 102.446 175.477 100.231 171.583C98.4419 168.418 94.7267 168.542 91.0803 169.601C89.3439 170.131 87.6394 170.761 85.9753 171.486C87.6403 169.876 89.3603 168.322 91.0941 166.78C93.392 164.827 95.7587 162.941 98.153 161.098C100.743 163.162 103.739 164.658 106.946 165.487C113.041 166.987 116.867 162.57 114.665 158.676C112.876 155.511 109.161 155.635 105.515 156.694C104.648 156.942 103.795 157.245 102.941 157.561C106.12 155.291 109.354 153.076 112.573 150.874L115.573 148.824C118.262 151.08 121.421 152.706 124.82 153.585C130.916 155.084 134.741 150.668 132.539 146.773C130.75 143.609 127.035 143.732 123.389 144.792C121.945 145.224 120.526 145.734 119.137 146.319C119.756 145.879 120.375 145.439 120.981 144.943C122.123 144.132 123.237 143.292 124.352 142.439C125.728 141.407 127.021 140.251 128.37 139.164C129.127 138.559 129.87 137.912 130.599 137.252C133.3 139.529 136.479 141.17 139.901 142.054C145.996 143.554 149.822 139.137 147.62 135.243C145.831 132.078 142.116 132.202 138.47 133.261C136.425 133.892 134.421 134.651 132.47 135.532C134.961 133.22 137.369 130.812 139.639 128.308L140.093 127.785C141.07 126.698 142.047 125.583 142.983 124.455C143.919 123.326 145.116 121.799 146.134 120.437C150.328 114.957 153.771 108.941 156.372 102.549C153.642 108.861 150.089 114.783 145.804 120.162C141.563 125.562 136.832 130.56 131.672 135.091L131.108 135.573C132.296 133.541 133.344 131.431 134.245 129.257C135.621 125.844 135.869 122.377 132.594 120.561C128.576 118.29 123.692 121.675 124.985 127.441C125.811 130.856 127.47 134.014 129.815 136.632L128.604 137.678L127.228 138.861C126.416 139.508 125.604 140.127 124.779 140.747L123.403 141.751C122.233 142.618 121.036 143.457 119.839 144.283L118.132 145.452L116.179 146.828C117.312 144.875 118.314 142.847 119.178 140.76C120.485 137.334 120.802 133.88 117.527 132.05C113.509 129.794 108.624 133.179 109.918 138.93C110.719 142.24 112.3 145.312 114.527 147.888L113.083 148.824L107.716 152.332L106.67 153.02L103.684 155.016L102.391 155.883C101.015 156.832 99.639 157.795 98.263 158.786C99.4203 156.803 100.441 154.743 101.318 152.621C102.625 149.209 102.941 145.741 99.6665 143.925C95.6486 141.655 90.7638 145.04 92.0573 150.805C92.8738 154.158 94.4882 157.264 96.7632 159.859C94.424 161.579 92.1261 163.34 89.8832 165.184C88.2458 166.56 86.6221 167.936 85.0534 169.422C85.7435 168.149 86.3547 166.835 86.8835 165.487C88.2595 162.061 88.5072 158.607 85.2323 156.791C81.2144 154.52 76.3296 157.905 77.623 163.671C78.3978 166.847 79.89 169.803 81.9849 172.312C77.5286 176.745 73.5104 181.597 69.9862 186.801C70.3885 185.299 70.6964 183.773 70.9081 182.233C71.3485 178.6 70.8256 175.188 67.2067 174.197C62.7485 172.972 58.8269 177.431 61.4825 182.742C63.014 185.663 65.1989 188.192 67.8672 190.131C64.415 195.8 61.5211 201.791 59.2259 208.019C59.1787 206.719 59.05 205.423 58.8406 204.139C58.2352 200.52 56.7629 197.396 53.0064 197.465C48.3968 197.562 45.9062 202.969 49.9517 207.29C52.1237 209.545 54.7698 211.288 57.6985 212.395C56.1373 217.21 54.86 222.112 53.8733 227.077C53.7219 227.861 53.5981 228.645 53.4467 229.43C53.2816 229.581 53.1165 229.732 52.9651 229.898C52.8 229.223 52.6073 228.522 52.3872 227.875C51.2313 224.407 49.2912 221.532 45.6035 222.192C41.049 222.976 39.4115 228.687 44.0899 232.361C46.475 234.172 49.2194 235.453 52.1395 236.117L52.3046 236.516C51.8093 240.245 51.424 244.002 51.1901 247.772C51.0112 250.524 50.9149 253.4 50.8598 256.22C46.9245 256.22 44.145 260.541 46.8557 265.22C48.0021 267.158 49.4675 268.888 51.1901 270.338C51.5203 275.636 52.0432 280.933 52.7449 286.19C52.1878 285.676 51.5068 285.316 50.7687 285.145C50.0306 284.974 49.2607 284.997 48.5344 285.213C46.0576 285.887 44.943 287.882 44.5302 290.332C43.6619 291.252 43.1709 292.465 43.1542 293.73C41.3104 290.978 39.5766 288.226 37.8842 285.309C40.463 283.333 42.6002 280.84 44.1587 277.989C47.1309 272.485 43.7872 267.655 39.4666 268.825C35.9578 269.774 35.1734 273.365 35.3386 277.204C35.3916 278.661 35.5294 280.113 35.7514 281.553C35.1322 280.493 34.5267 279.42 33.935 278.36C32.4214 275.608 31.183 272.856 29.697 270.104C29.3392 269.43 29.0227 268.728 28.72 268.04C31.6234 266.587 34.1879 264.538 36.2467 262.027C40.1958 257.156 37.8153 251.804 33.3571 252.148C29.7382 252.436 28.2934 255.808 27.688 259.605C27.4345 261.259 27.2874 262.928 27.2477 264.6L25.9542 261.614C23.2036 254.839 20.9366 247.878 19.1706 240.782C22.4492 239.614 25.4285 237.734 27.8944 235.278C32.3113 230.806 30.4813 225.26 26.0093 225.15C22.3766 225.068 20.6016 228.274 19.6109 232.03C19.1243 234.025 18.7567 236.047 18.5101 238.085C17.5606 233.957 16.735 229.898 16.047 225.77C15.5792 223.21 15.2765 220.61 14.9462 218.023C18.4772 217.323 21.8035 215.832 24.6746 213.661C29.6282 209.808 28.5273 204.029 24.1104 203.382C20.519 202.818 18.345 205.776 16.8864 209.34C16.0271 211.587 15.3056 213.885 14.7261 216.22C14.4509 213.22 14.1344 210.207 13.9968 207.194C13.6046 200.97 13.6322 194.727 14.0794 188.508C13.4441 194.724 13.2281 200.976 13.4326 207.221C13.4326 210.097 13.6803 212.959 13.8592 215.835C13.0699 213.881 12.1505 211.983 11.1072 210.152C9.22207 207.001 6.73151 204.648 3.25023 206.024C-1.01537 207.785 -1.38689 213.702 3.96575 216.289C7.11875 217.733 10.5753 218.389 14.0381 218.202C14.2858 220.761 14.4922 223.334 14.8912 225.88C15.4278 229.939 16.1158 233.971 16.9139 237.975C16.0432 236.438 15.0686 234.962 13.9968 233.558C11.7264 230.682 8.93312 228.645 5.7408 230.503C1.73664 232.801 2.13568 238.759 7.77728 240.589C10.9771 241.585 14.3669 241.811 17.6707 241.25C19.2361 248.425 21.3005 255.483 23.849 262.371L24.6746 264.435C23.9462 263.471 23.1605 262.552 22.3216 261.683C19.776 259.041 16.8176 257.294 13.7354 259.482C9.97887 262.165 10.9834 268.013 16.7763 269.306C19.9882 269.96 23.3074 269.866 26.4771 269.031C26.7523 269.733 27.055 270.407 27.399 271.123C28.775 273.957 29.9997 276.86 31.4445 279.64L32.6966 282.02C31.9848 281.395 31.2407 280.807 30.4675 280.259C27.4678 278.154 24.2205 276.998 21.6198 279.709C18.4413 283.053 20.5053 288.612 26.4496 288.79C29.4908 288.871 32.5135 288.293 35.311 287.098C37.0035 290.18 38.7648 293.221 40.6637 296.207C41.3654 297.349 42.0397 298.477 42.8377 299.606C41.7578 298.592 40.6133 297.65 39.4115 296.785C36.4256 294.68 33.1645 293.524 30.5776 296.235C27.3853 299.578 29.463 305.137 35.4074 305.316C38.8047 305.355 42.1626 304.587 45.2045 303.073C46.1768 304.449 47.1951 305.825 48.2592 307.201C46.0438 309.774 46.7593 314.081 51.2589 316.049C53.4454 316.956 55.7739 317.473 58.1389 317.576L58.992 318.223L59.1434 318.333C61.9839 328.962 65.3547 339.442 69.2432 349.733C70.9036 354.127 72.6557 358.48 74.4995 362.792H57.9875V427.918H108.432V362.778H81.4758C79.1779 357.756 76.9763 352.678 74.9123 347.546C71.5411 339.111 68.4864 330.566 65.8169 321.883C66.2682 322.019 66.7278 322.125 67.1929 322.2C67.8045 322.321 68.4307 322.348 69.0505 322.282L68.335 317.755H68.2387H67.8534C67.6057 317.755 67.2755 317.631 66.9865 317.59C66.3543 317.411 65.7377 317.181 65.1427 316.902L64.4272 316.572C67.079 315.647 69.5407 314.249 71.6925 312.444C76.4809 308.316 75.1187 302.674 70.6742 302.193C67.0554 301.794 65.0189 304.848 63.7942 308.467C63.4227 309.499 63.12 310.573 62.8448 311.618C62.5971 310.655 62.3219 309.692 62.088 308.729C61.3587 305.88 60.712 303.005 60.0515 300.129C62.9267 299.213 65.5956 297.746 67.9085 295.808C72.6969 291.68 71.3347 286.052 66.8902 285.571C63.2713 285.172 61.2349 288.226 60.0102 291.845C59.6352 292.897 59.3137 293.967 59.047 295.051C58.6342 292.946 58.2214 290.854 57.8637 288.749C57.5885 287.181 57.3545 285.626 57.1206 284.057C57.0243 281.828 56.9968 279.599 57.0243 277.356C57.0243 276.131 57.0243 274.907 57.1344 273.668C59.8298 274.532 62.6605 274.896 65.4867 274.741C71.7475 274.329 74.0729 268.962 70.7981 265.921C68.1286 263.431 64.6749 264.669 61.4688 266.788C60.0287 267.762 58.6501 268.823 57.3408 269.967C57.7215 264.73 58.5129 259.531 59.7075 254.418C60.4207 251.408 61.3027 248.44 62.3494 245.529C65.2254 246.525 68.2682 246.951 71.3072 246.781C77.568 246.382 79.8934 241.016 76.6185 237.961C73.9491 235.484 70.4953 236.709 67.2893 238.842C66.1507 239.609 65.053 240.436 64.0006 241.318C65.2045 238.469 66.6116 235.71 68.2112 233.062C71.4128 227.74 75.4132 222.942 80.0723 218.835C82.4659 221.052 85.2969 222.744 88.3834 223.802C94.3414 225.756 98.497 221.628 96.6394 217.582C95.0982 214.294 91.4243 214.142 87.6678 214.927C86.2385 215.235 84.828 215.626 83.4435 216.096L83.5261 216.014C88.6603 212.007 94.1935 208.539 100.038 205.666C102.093 208.372 104.713 210.598 107.716 212.188C113.289 215.064 118.05 211.652 116.812 207.359C115.807 203.864 112.216 203.134 108.363 203.231C106.86 203.318 105.363 203.483 103.877 203.726C110.069 200.795 116.412 198.029 122.508 194.796L122.632 194.727C125.37 197.084 128.614 198.779 132.113 199.681C138.208 201.194 142.047 196.764 139.846 192.869C138.043 189.705 134.342 189.842 130.682 190.888C129.65 191.191 128.618 191.562 127.627 191.948C131.701 189.574 135.651 186.993 139.46 184.214L139.791 184.558C139.783 184.508 139.783 184.457 139.791 184.407C142.548 186.789 145.815 188.507 149.34 189.429C155.436 190.929 159.261 186.512 157.06 182.618C155.284 179.495 151.624 179.632 147.923 180.692ZM51.713 305.371C50.4746 303.899 49.2912 302.385 48.1216 300.844C48.4105 300.596 48.7133 300.321 49.016 300.019C50.7307 300.555 52.5058 300.873 54.2998 300.968C54.2998 301.064 54.2998 301.161 54.2998 301.257L55.1392 301.078C55.5657 303.252 56.0336 305.413 56.5152 307.573C55.9528 306.844 55.2219 306.264 54.3854 305.88C53.549 305.497 52.6318 305.322 51.713 305.371ZM56.2125 253.565C55.7859 255.175 55.4144 256.812 55.0841 258.45C55.022 258.345 54.9481 258.248 54.864 258.161C54.864 254.803 54.919 251.455 55.0291 248.116C55.1254 245.777 55.2906 243.451 55.497 241.112C56.6231 242.272 57.8684 243.309 59.2121 244.208C58.0287 247.265 57.027 250.389 56.2125 253.565ZM61.8541 238.154C61.8541 237.548 61.9917 236.929 62.033 236.324C62.033 236.007 62.033 235.704 62.033 235.402C62.5283 235.25 63.0237 235.071 63.5328 234.865C62.9549 235.952 62.3907 237.039 61.8541 238.154ZM69.023 226.513C68.7789 225.972 68.4292 225.485 67.9944 225.081C67.5596 224.677 67.0486 224.364 66.4912 224.16C63.1062 222.784 60.3405 225.26 58.1526 228.425L58.0563 228.577H57.8361C57.6054 228.524 57.3706 228.492 57.1344 228.48C57.1344 228.288 57.1344 228.095 57.2307 227.902C58.1038 222.938 59.2756 218.03 60.7395 213.207C63.8983 213.605 67.1051 213.357 70.1651 212.477C72.0365 211.996 73.6756 210.865 74.7885 209.285C75.4 212.055 76.5501 214.678 78.1734 217.004C74.7982 219.859 71.7313 223.06 69.023 226.554V226.513Z"
          fill="white"/>
    <path d="M539.065 430.656C539.065 433.958 463.495 436.628 370.285 436.628C277.074 436.628 201.491 433.958 201.491 430.656C201.491 427.354 277.061 424.698 370.285 424.698C463.509 424.698 539.065 427.367 539.065 430.656Z"
          fill="#007BFF"/>
    <path opacity="0.3"
          d="M539.065 430.656C539.065 433.958 463.495 436.628 370.285 436.628C277.074 436.628 201.491 433.958 201.491 430.656C201.491 427.354 277.061 424.698 370.285 424.698C463.509 424.698 539.065 427.367 539.065 430.656Z"
          fill="#2E353A"/>
    <path d="M358.134 377.075C358.134 377.075 366.39 412.355 362.772 418.162C358.107 425.744 308.365 430.312 308.365 430.312H418.045C418.045 430.312 431.805 426.459 427.677 415.41C424.471 406.851 409.129 377.075 409.129 377.075H358.134Z"
          fill="white" stroke="#2E353A" stroke-linecap="round" stroke-linejoin="round"/>
    <path d="M355.74 377.075C355.74 377.075 364.492 412.658 360.377 418.162C356.263 423.666 308.365 427.863 308.365 427.863H418.555C418.555 427.863 427.829 424.12 425.256 415.41C422.683 406.7 406.721 377.075 406.721 377.075H355.74Z"
          fill="white" stroke="#2E353A" stroke-linecap="round" stroke-linejoin="round"/>
    <g style="mix-blend-mode:multiply">
        <path d="M406.721 377.075H355.809C355.809 377.075 360.983 398.155 361.492 410.374H423.412C418.334 398.623 406.721 377.075 406.721 377.075Z"
              fill="#007BFF"/>
    </g>
    <path d="M418.045 428.042H308.365V430.312H418.045V428.042Z" fill="white" stroke="#2E353A" stroke-linecap="round"
          stroke-linejoin="round"/>
    <path d="M538.762 132.339H231.157C224.713 132.339 219.489 137.563 219.489 144.008V368.887C219.489 375.332 224.713 380.556 231.157 380.556H538.762C545.206 380.556 550.43 375.332 550.43 368.887V144.008C550.43 137.563 545.206 132.339 538.762 132.339Z"
          fill="#007BFF" stroke="#2E353A" stroke-linecap="round" stroke-linejoin="round"/>
    <path d="M530.96 132.339H223.355C216.911 132.339 211.687 137.563 211.687 144.008V368.887C211.687 375.332 216.911 380.556 223.355 380.556H530.96C537.404 380.556 542.629 375.332 542.629 368.887V144.008C542.629 137.563 537.404 132.339 530.96 132.339Z"
          fill="#2E353A" stroke="#2E353A" stroke-linecap="round" stroke-linejoin="round"/>
    <path d="M211.687 341.959H542.629V368.86C542.629 371.955 541.399 374.922 539.211 377.111C537.023 379.299 534.055 380.528 530.96 380.528H223.355C220.261 380.528 217.293 379.299 215.104 377.111C212.916 374.922 211.687 371.955 211.687 368.86V341.959Z"
          fill="white" stroke="#2E353A" stroke-linecap="round" stroke-linejoin="round"/>
    <path d="M525.993 147.778H228.336V323.135H525.993V147.778Z" fill="#007BFF" stroke="#2E353A" stroke-linecap="round"
          stroke-linejoin="round"/>
    <path d="M383.26 361.251C383.26 360.042 382.901 358.86 382.23 357.855C381.558 356.85 380.603 356.067 379.486 355.605C378.368 355.143 377.139 355.023 375.954 355.26C374.768 355.496 373.68 356.08 372.826 356.935C371.972 357.791 371.391 358.881 371.157 360.067C370.923 361.253 371.046 362.482 371.51 363.598C371.975 364.714 372.76 365.667 373.767 366.337C374.773 367.007 375.956 367.363 377.164 367.36C377.966 367.36 378.76 367.202 379.5 366.895C380.241 366.587 380.913 366.137 381.48 365.57C382.046 365.002 382.495 364.329 382.8 363.587C383.106 362.846 383.262 362.052 383.26 361.251Z"
          fill="#2E353A" stroke="#2E353A" stroke-linecap="round" stroke-linejoin="round"/>
    <path d="M523.199 160.134H230.676V175.504H523.199V160.134Z" fill="#2E353A" stroke="#2E353A" stroke-linecap="round"
          stroke-linejoin="round"/>
    <path d="M278.932 175.518L275.437 166.024H230.676V175.518V188.108V315.664H523.199V175.518H278.932Z" fill="white"
          stroke="#2E353A" stroke-linecap="round" stroke-linejoin="round"/>
    <path d="M440.695 431.66C440.695 431.66 442.58 436.215 452.968 437.797C463.357 439.38 533.423 431.179 533.423 431.179C533.423 431.179 537.826 430.078 538.143 427.876C538.459 425.675 526.805 419.221 505.243 416.538C486.479 414.384 467.471 416.54 449.666 422.84C436.291 427.725 440.695 431.66 440.695 431.66Z"
          fill="white" stroke="#2E353A" stroke-linecap="round" stroke-linejoin="round"/>
    <g style="mix-blend-mode:multiply">
        <path d="M521.328 423.941C516.65 423.941 506.068 424.437 497.454 425.18C488.841 425.923 474.572 431.33 466.701 434.027C458.83 436.724 446.281 436.009 446.281 436.009C448.427 436.882 450.673 437.483 452.968 437.797C463.357 439.366 533.423 431.179 533.423 431.179C534.959 430.795 536.377 430.039 537.551 428.977C533.107 425.757 525.153 423.941 521.328 423.941Z"
              fill="#007BFF"/>
    </g>
    <path d="M534.964 427.45C535.577 427.772 536.162 428.145 536.712 428.564" stroke="#2E353A" stroke-linecap="round"
          stroke-linejoin="round"/>
    <path d="M448.414 436.697C455.715 436.913 462.987 435.684 469.811 433.078C484.284 427.38 499.666 424.336 515.219 424.092C524.259 424.024 529.79 425.262 533.107 426.514"
          stroke="#2E353A" stroke-linecap="round" stroke-linejoin="round"/>
    <path d="M506.55 248.639H415.349V304.147H506.123" stroke="#2E353A" stroke-width="0.5" stroke-linecap="round"
          stroke-linejoin="round"/>
    <path d="M415.761 264.463H506.963" stroke="#2E353A" stroke-width="0.5" stroke-linecap="round"
          stroke-linejoin="round"/>
    <path d="M415.761 280.245H506.963" stroke="#2E353A" stroke-width="0.5" stroke-linecap="round"
          stroke-linejoin="round"/>
    <path d="M415.761 296.028H506.963" stroke="#2E353A" stroke-width="0.5" stroke-linecap="round"
          stroke-linejoin="round"/>
    <path d="M412.844 249.01H409.102" stroke="#2E353A" stroke-width="0.5" stroke-linecap="round"
          stroke-linejoin="round"/>
    <path d="M412.844 256.826H409.102" stroke="#2E353A" stroke-width="0.5" stroke-linecap="round"
          stroke-linejoin="round"/>
    <path d="M412.844 264.655H409.102" stroke="#2E353A" stroke-width="0.5" stroke-linecap="round"
          stroke-linejoin="round"/>
    <path d="M412.844 272.485H409.102" stroke="#2E353A" stroke-width="0.5" stroke-linecap="round"
          stroke-linejoin="round"/>
    <path d="M412.844 280.3H409.102" stroke="#2E353A" stroke-width="0.5" stroke-linecap="round"
          stroke-linejoin="round"/>
    <path d="M412.844 288.13H409.102" stroke="#2E353A" stroke-width="0.5" stroke-linecap="round"
          stroke-linejoin="round"/>
    <path d="M412.844 295.959H409.102" stroke="#2E353A" stroke-width="0.5" stroke-linecap="round"
          stroke-linejoin="round"/>
    <path d="M412.844 303.775H409.102" stroke="#2E353A" stroke-width="0.5" stroke-linecap="round"
          stroke-linejoin="round"/>
    <path d="M422.861 270.861H418.665V303.926H422.861V270.861Z" fill="#2E353A" stroke="#2E353A" stroke-linecap="round"
          stroke-linejoin="round"/>
    <path d="M430.306 255.037H426.109V303.926H430.306V255.037Z" fill="#007BFF" stroke="#2E353A" stroke-linecap="round"
          stroke-linejoin="round"/>
    <path d="M437.764 270.861H433.567V303.926H437.764V270.861Z" fill="white" stroke="#2E353A" stroke-linecap="round"
          stroke-linejoin="round"/>
    <path d="M454.523 260.156H450.326V303.926H454.523V260.156Z" fill="#2E353A" stroke="#2E353A" stroke-linecap="round"
          stroke-linejoin="round"/>
    <path d="M461.967 266.678H457.771V303.926H461.967V266.678Z" fill="#007BFF" stroke="#2E353A" stroke-linecap="round"
          stroke-linejoin="round"/>
    <path d="M469.425 285.295H465.229V303.926H469.425V285.295Z" fill="white" stroke="#2E353A" stroke-linecap="round"
          stroke-linejoin="round"/>
    <path d="M486.185 270.861H481.988V303.926H486.185V270.861Z" fill="#2E353A" stroke="#2E353A" stroke-linecap="round"
          stroke-linejoin="round"/>
    <path d="M493.629 255.037H489.432V303.926H493.629V255.037Z" fill="#007BFF" stroke="#2E353A" stroke-linecap="round"
          stroke-linejoin="round"/>
    <path d="M501.087 270.861H496.89V303.926H501.087V270.861Z" fill="white" stroke="#2E353A" stroke-linecap="round"
          stroke-linejoin="round"/>
    <path opacity="0.4" d="M388.874 196.392L435.411 231.219V182.591L388.874 1V196.392Z" fill="#007BFF" stroke="white"
          stroke-linecap="round" stroke-linejoin="round"/>
    <path opacity="0.4" d="M435.411 231.219H284.051L38.4484 196.392H388.874L435.411 231.219Z" fill="#007BFF"
          stroke="white" stroke-linecap="round" stroke-linejoin="round"/>
    <path d="M388.874 1H38.4484V177.128H388.874V1Z" fill="black" stroke="#2E353A" stroke-linecap="round"
          stroke-linejoin="round"/>
    <path d="M51.9607 10.1367H118.931" stroke="white" stroke-width="2" stroke-linecap="round" stroke-linejoin="round"/>
    <path d="M379.958 9.31104C379.958 8.40148 379.688 7.51237 379.182 6.7563C378.677 6.00022 377.958 5.41117 377.117 5.06373C376.277 4.71629 375.352 4.62608 374.46 4.80453C373.568 4.98298 372.75 5.42207 372.107 6.06619C371.465 6.7103 371.029 7.53048 370.853 8.42289C370.677 9.3153 370.77 10.2398 371.12 11.0793C371.47 11.9189 372.061 12.6357 372.819 13.139C373.576 13.6424 374.466 13.9096 375.376 13.9069C375.979 13.9069 376.576 13.7879 377.132 13.5568C377.689 13.3256 378.195 12.9869 378.621 12.56C379.046 12.133 379.384 11.6263 379.613 11.0687C379.842 10.5112 379.96 9.91392 379.958 9.31104Z"
          fill="white"/>
    <path d="M360.322 9.31103C360.32 8.40537 360.049 7.52083 359.543 6.76912C359.038 6.01741 358.322 5.43226 357.484 5.08756C356.647 4.74286 355.726 4.65408 354.838 4.83244C353.95 5.01079 353.135 5.44827 352.495 6.08963C351.856 6.73099 351.421 7.54746 351.245 8.43592C351.07 9.32438 351.161 10.245 351.508 11.0814C351.855 11.9179 352.443 12.6327 353.196 13.1356C353.949 13.6385 354.835 13.9069 355.74 13.9069C356.343 13.9069 356.94 13.7879 357.497 13.5568C358.054 13.3256 358.56 12.9869 358.985 12.56C359.411 12.133 359.748 11.6263 359.977 11.0687C360.207 10.5112 360.324 9.91392 360.322 9.31103Z"
          fill="white"/>
    <path d="M388.874 20.264H38.4484V196.392H388.874V20.264Z" fill="white" stroke="#2E353A" stroke-linecap="round"
          stroke-linejoin="round"/>
    <path d="M372.362 38.6198H63.2163V179.88H371.44" stroke="#2E353A" stroke-width="0.5" stroke-linecap="round"
          stroke-linejoin="round"/>
    <path d="M64.1383 78.8816H373.27" stroke="#2E353A" stroke-width="0.5" stroke-linecap="round"
          stroke-linejoin="round"/>
    <path d="M64.1383 119.061H373.27" stroke="#2E353A" stroke-width="0.5" stroke-linecap="round"
          stroke-linejoin="round"/>
    <path d="M64.1383 159.24H373.27" stroke="#2E353A" stroke-width="0.5" stroke-linecap="round"
          stroke-linejoin="round"/>
    <path d="M57.7124 39.528H49.4564" stroke="#2E353A" stroke-width="0.5" stroke-linecap="round"
          stroke-linejoin="round"/>
    <path d="M57.7124 59.4525H49.4564" stroke="#2E353A" stroke-width="0.5" stroke-linecap="round"
          stroke-linejoin="round"/>
    <path d="M57.7124 79.377H49.4564" stroke="#2E353A" stroke-width="0.5" stroke-linecap="round"
          stroke-linejoin="round"/>
    <path d="M57.7124 99.2877H49.4564" stroke="#2E353A" stroke-width="0.5" stroke-linecap="round"
          stroke-linejoin="round"/>
    <path d="M57.7124 119.212H49.4564" stroke="#2E353A" stroke-width="0.5" stroke-linecap="round"
          stroke-linejoin="round"/>
    <path d="M57.7124 139.123H49.4564" stroke="#2E353A" stroke-width="0.5" stroke-linecap="round"
          stroke-linejoin="round"/>
    <path d="M57.7124 159.047H49.4564" stroke="#2E353A" stroke-width="0.5" stroke-linecap="round"
          stroke-linejoin="round"/>
    <path d="M57.7124 178.972H49.4564" stroke="#2E353A" stroke-width="0.5" stroke-linecap="round"
          stroke-linejoin="round"/>
    <path d="M65.5143 79.6246C65.5143 79.6246 92.5664 80.808 98.0704 77.1478C103.574 73.4877 110.922 66.1398 115.504 67.048C120.472 68.333 125.372 69.8669 130.186 71.6438C130.186 71.6438 141.194 65.2179 143.946 65.2179C146.698 65.2179 155.862 69.8 163.21 69.8H184.304L192.56 76.2259L208.15 71.6438L225.584 78.9779L236.592 77.1478L252.182 85.4038H259.53L274.198 91.816H293.462L304.47 98.2419L321.904 99.1638L335.664 112.924L346.672 111.08L358.602 115.676L369.61 114.754"
          stroke="#007BFF" stroke-width="3" stroke-linecap="round" stroke-linejoin="round"/>
    <path d="M65.0464 84.4819H98.9923L119.178 87.2339L135.69 88.1558L150.358 98.2419L171.466 91.816L197.142 100.994L225.584 96.4118L235.67 100.994L258.608 75.304H281.546L295.306 60.6358L309.974 67.048L319.152 58.792L331.082 65.2179L338.416 56.04L342.998 56.9619L354.928 53.288L360.432 56.9619L369.61 55.1318"
          stroke="#2E353A" stroke-width="3" stroke-linecap="round" stroke-linejoin="round"/>
    <path d="M65.9684 174.376H101.744L129.264 158.786L149.45 167.964H164.118L171.466 170.716L187.978 162.46L209.994 148.7L217.328 158.786L231.088 156.956L238.422 158.786L256.778 159.708L276.95 143.196L287.05 155.112L299.888 154.204L307.222 158.786L318.23 156.034L332.912 161.538L353.098 158.786L364.106 160.616L370.518 158.786"
          stroke="#007BFF" stroke-width="3" stroke-linecap="round" stroke-linejoin="round"/>
    <path opacity="0.4" d="M284.973 209.244L366.611 244.057V305.523L284.973 394.536V209.244Z" fill="#007BFF"
          stroke="white" stroke-linecap="round" stroke-linejoin="round"/>
    <path d="M284.973 209.244H104.496V385.372H284.973V209.244Z" fill="black" stroke="#2E353A" stroke-linecap="round"
          stroke-linejoin="round"/>
    <path d="M284.973 228.508H104.496V394.55H284.973V228.508Z" fill="white" stroke="#2E353A" stroke-linecap="round"
          stroke-linejoin="round"/>
    <path d="M193.441 310.848L121.889 310.779C121.767 301.159 123.649 291.619 127.416 282.766C131.183 273.913 136.751 265.941 143.767 259.358L193.441 310.848Z"
          fill="black" stroke="white" stroke-miterlimit="10"/>
    <path d="M193.441 310.848L174.865 379.909C159.589 375.952 146.078 366.995 136.484 354.466C126.891 341.938 121.767 326.558 121.93 310.779L193.441 310.848Z"
          fill="black" stroke="white" stroke-miterlimit="10"/>
    <path d="M196.647 312.857L230.29 249.74C245.75 258.036 257.622 271.723 263.651 288.199C269.68 304.675 269.445 322.792 262.992 339.107C256.538 355.422 244.315 368.797 228.646 376.689C212.976 384.582 194.954 386.443 178.002 381.918L196.647 312.857Z"
          fill="#007BFF" stroke="white" stroke-miterlimit="10"/>
    <path d="M193.441 310.848L189.767 239.42C202.739 238.553 215.688 241.418 227.084 247.676L193.441 310.848Z"
          fill="black" stroke="white" stroke-miterlimit="10"/>
    <path d="M193.441 310.848L143.809 259.358C156.022 247.089 172.464 239.956 189.767 239.419L193.441 310.848Z"
          fill="black" stroke="white" stroke-miterlimit="10"/>
    <path d="M277.625 219.289C277.625 218.382 277.356 217.496 276.853 216.743C276.349 215.989 275.633 215.402 274.796 215.055C273.959 214.709 273.038 214.618 272.149 214.795C271.26 214.971 270.443 215.408 269.803 216.049C269.162 216.689 268.725 217.506 268.549 218.395C268.372 219.284 268.463 220.205 268.809 221.042C269.156 221.879 269.743 222.595 270.497 223.099C271.251 223.602 272.136 223.871 273.043 223.871C273.644 223.871 274.24 223.752 274.796 223.522C275.352 223.292 275.857 222.954 276.283 222.529C276.708 222.103 277.046 221.598 277.276 221.042C277.506 220.486 277.625 219.89 277.625 219.289Z"
          fill="white"/>
    <path d="M258.003 219.289C258.006 218.379 257.738 217.489 257.235 216.732C256.732 215.974 256.015 215.383 255.175 215.033C254.336 214.683 253.411 214.59 252.519 214.766C251.627 214.941 250.806 215.378 250.162 216.02C249.518 216.662 249.079 217.481 248.901 218.373C248.722 219.265 248.812 220.19 249.16 221.03C249.507 221.871 250.096 222.59 250.852 223.095C251.608 223.601 252.498 223.871 253.407 223.871C254.624 223.871 255.79 223.388 256.652 222.53C257.513 221.671 257.999 220.505 258.003 219.289Z"
          fill="white"/>
    <g style="mix-blend-mode:multiply" opacity="0.73">
        <path d="M284.973 228.508H104.496V249.795H284.973V228.508Z" fill="#007BFF"/>
        <path d="M284.973 228.508H104.496V249.795H284.973V228.508Z" stroke="white" stroke-linecap="round"
              stroke-linejoin="round"/>
    </g>
</svg>
