<svg width="298" height="160" viewBox="0 0 298 160" fill="none" xmlns="http://www.w3.org/2000/svg">
    <path d="M0 4C0 1.79086 1.79086 0 4 0H294C296.209 0 298 1.79086 298 4V160H0V4Z" fill="#CCE5FF"/>
    <g clip-path="url(#clip0)">
        <path d="M162.212 80C160.1 80 158.112 78.875 157.037 77.075L149 63.75L140.975 77.075C139.887 78.8875 137.9 80.0125 135.787 80.0125C135.225 80.0125 134.662 79.9375 134.125 79.775L117 74.875V97.125C117 98.9625 118.25 100.562 120.025 101L147.05 107.762C148.325 108.075 149.662 108.075 150.925 107.762L177.975 101C179.75 100.55 181 98.95 181 97.125V74.875L163.875 79.7625C163.337 79.925 162.775 80 162.212 80ZM188.787 65.975L182.35 53.125C181.962 52.35 181.125 51.9 180.262 52.0125L149 56L160.462 75.0125C160.937 75.8 161.887 76.175 162.775 75.925L187.512 68.8625C188.75 68.5 189.35 67.125 188.787 65.975ZM115.65 53.125L109.212 65.975C108.637 67.125 109.25 68.5 110.475 68.85L135.212 75.9125C136.1 76.1625 137.05 75.7875 137.525 75L149 56L117.725 52.0125C116.862 51.9125 116.037 52.35 115.65 53.125Z"
              fill="#007BFF"/>
    </g>
    <defs>
        <clipPath id="clip0">
            <rect width="80" height="64" fill="white" transform="translate(109 48)"/>
        </clipPath>
    </defs>
</svg>
