<svg width="124" height="36" viewBox="0 0 124 36" fill="none" xmlns="http://www.w3.org/2000/svg">
    <path d="M48.704 9.248L42.56 26H38.48L32.336 9.248H35.936L40.544 22.568L45.128 9.248H48.704ZM54.0785 11.96V16.16H59.7185V18.824H54.0785V23.264H60.4385V26H50.7185V9.224H60.4385V11.96H54.0785ZM77.8199 26H74.4599L66.8519 14.504V26H63.4919V9.224H66.8519L74.4599 20.744V9.224H77.8199V26ZM92.5404 9.248V11.96H88.0764V26H84.7164V11.96H80.2524V9.248H92.5404ZM103.632 26L99.9359 19.472H98.3519V26H94.9919V9.248H101.28C102.576 9.248 103.68 9.48 104.592 9.944C105.504 10.392 106.184 11.008 106.632 11.792C107.096 12.56 107.328 13.424 107.328 14.384C107.328 15.488 107.008 16.488 106.368 17.384C105.728 18.264 104.776 18.872 103.512 19.208L107.52 26H103.632ZM98.3519 16.952H101.16C102.072 16.952 102.752 16.736 103.2 16.304C103.648 15.856 103.872 15.24 103.872 14.456C103.872 13.688 103.648 13.096 103.2 12.68C102.752 12.248 102.072 12.032 101.16 12.032H98.3519V16.952ZM123.687 9.248L118.023 20.168V26H114.663V20.168L108.975 9.248H112.767L116.367 16.904L119.943 9.248H123.687Z"
          fill="#333333"/>
    <path d="M7 15C7 13.8954 7.89543 13 9 13H17V21C17 22.1046 16.1046 23 15 23H7V15Z" fill="#007BFF"/>
    <line x1="1.5" y1="7.5" x2="1.5" y2="16.5" stroke="#007BFF" stroke-width="3" stroke-linecap="round"/>
    <line x1="10.5" y1="7.5" x2="1.5" y2="7.5" stroke="#007BFF" stroke-width="3" stroke-linecap="round"/>
    <line x1="22.5" y1="28.5" x2="22.5" y2="19.5" stroke="#007BFF" stroke-width="3" stroke-linecap="round"/>
    <line x1="13.5" y1="28.5" x2="22.5" y2="28.5" stroke="#007BFF" stroke-width="3" stroke-linecap="round"/>
</svg>
