<svg width="298" height="160" viewBox="0 0 298 160" fill="none" xmlns="http://www.w3.org/2000/svg">
    <path d="M0 4C0 1.79086 1.79086 0 4 0H294C296.209 0 298 1.79086 298 4V160H0V4Z" fill="#CCE5FF"/>
    <path d="M178.075 79.275L166 74.75V61.1875C166 59.3125 164.838 57.6375 163.075 56.975L150.575 52.2875C149.562 51.9 148.438 51.9 147.413 52.2875L134.913 56.975C133.15 57.6375 131.988 59.3125 131.988 61.1875V74.75L119.912 79.275C118.162 79.9375 117 81.6125 117 83.4875V97.25C117 98.95 117.962 100.513 119.487 101.275L131.988 107.525C133.25 108.163 134.75 108.163 136.013 107.525L149 101.025L161.987 107.525C163.25 108.163 164.75 108.163 166.013 107.525L178.513 101.275C180.038 100.513 181 98.95 181 97.25V83.4875C181 81.6125 179.838 79.9375 178.075 79.275ZM161.75 74.85L151.125 78.8375V70.3125L161.75 65.6875V74.85ZM136.25 61.0125L149 56.2375L161.75 61.0125V61.0875L149 66.2625L136.25 61.0875V61.0125ZM146.75 97.4L136.125 102.713V92.825L146.75 87.975V97.4ZM146.75 83.4L134 88.575L121.25 83.4V83.325L134 78.55L146.75 83.325V83.4ZM176.75 97.4L166.125 102.713V92.825L176.75 87.975V97.4ZM176.75 83.4L164 88.575L151.25 83.4V83.325L164 78.55L176.75 83.325V83.4Z"
          fill="#007BFF"/>
</svg>
