<svg width="584" height="400" viewBox="0 0 584 400" fill="none" xmlns="http://www.w3.org/2000/svg">
    <rect width="584" height="400" fill="#007BFF"/>
    <path d="M193.68 268.16L173.2 324H159.6L139.12 268.16H151.12L166.48 312.56L181.76 268.16H193.68ZM211.595 277.2V291.2H230.395V300.08H211.595V314.88H232.795V324H200.395V268.08H232.795V277.2H211.595ZM290.733 324H279.533L254.173 285.68V324H242.973V268.08H254.173L279.533 306.48V268.08H290.733V324ZM339.801 268.16V277.2H324.921V324H313.721V277.2H298.841V268.16H339.801ZM376.773 324L364.453 302.24H359.173V324H347.973V268.16H368.933C373.253 268.16 376.933 268.933 379.973 270.48C383.013 271.973 385.28 274.027 386.773 276.64C388.32 279.2 389.093 282.08 389.093 285.28C389.093 288.96 388.026 292.293 385.893 295.28C383.76 298.213 380.586 300.24 376.373 301.36L389.733 324H376.773ZM359.173 293.84H368.533C371.573 293.84 373.84 293.12 375.333 291.68C376.826 290.187 377.573 288.133 377.573 285.52C377.573 282.96 376.826 280.987 375.333 279.6C373.84 278.16 371.573 277.44 368.533 277.44H359.173V293.84ZM443.623 268.16L424.743 304.56V324H413.543V304.56L394.583 268.16H407.223L419.223 293.68L431.143 268.16H443.623Z"
          fill="white"/>
    <path d="M257.667 118.667C257.667 114.248 261.248 110.667 265.667 110.667H324.333V169.333C324.333 173.752 320.752 177.333 316.333 177.333H257.667V118.667Z"
          fill="#FAFAFA"/>
    <line x1="221" y1="74" x2="221" y2="134" stroke="#FAFAFA" stroke-width="20" stroke-linecap="round"/>
    <line x1="281" y1="74" x2="221" y2="74" stroke="#FAFAFA" stroke-width="20" stroke-linecap="round"/>
    <line x1="361" y1="214" x2="361" y2="154" stroke="#FAFAFA" stroke-width="20" stroke-linecap="round"/>
    <line x1="301" y1="214" x2="361" y2="214" stroke="#FAFAFA" stroke-width="20" stroke-linecap="round"/>
</svg>
