<svg width="120" height="120" viewBox="0 0 120 120" fill="none" xmlns="http://www.w3.org/2000/svg">
    <circle cx="60" cy="60" r="60" fill="#CCE5FF"/>
    <g clip-path="url(#clip0)">
        <path d="M46.4635 60.8907C46.4427 60.8282 46.4219 60.7449 46.4115 60.6719C46.2969 59.6876 46.1875 58.599 46.0885 57.6615C45.9531 56.2865 45.8021 54.698 45.6927 53.5834C45.6198 52.8282 45.3802 52.1094 45.0313 51.573C44.7969 51.2292 44.5365 50.974 44.2448 50.849C44.0104 50.7553 43.724 50.7449 43.4271 50.8594C43.0208 51.0157 42.5677 51.3438 42.0625 51.9167C41.6146 52.4272 41.2656 53.1094 40.974 53.8334C40.5625 54.8907 40.3177 56.0157 40.2188 56.7865C40.2083 56.8386 40.2083 56.8803 40.1875 56.9219L37.3854 72.8282C37.3438 73.0365 37.2604 73.224 37.1354 73.3699C36.1927 74.5834 35.599 75.6251 35.4271 76.4688C35.3021 77.0886 35.4271 77.5886 35.8385 77.9792L46.151 88.2917C46.8073 88.922 47.5677 89.3178 48.4792 89.4845C49.474 89.672 50.6354 89.5678 51.9688 89.2032C51.9896 89.2032 52.0208 89.1928 52.0417 89.1928C52.5469 89.0574 53.2083 88.8959 53.8438 88.7344C56.6094 88.0626 59.0208 87.4688 61.2552 85.4376L64.1302 82.4376C64.1563 82.3855 64.2031 82.3438 64.2448 82.3022C64.2865 82.2605 64.5677 81.9792 64.9479 81.6199C66.9167 79.698 69.349 77.323 67.8698 75.2449L66.7188 74.0938C66.1615 74.6355 65.5677 75.1615 65 75.6667C64.4792 76.1251 63.9948 76.5469 63.5521 76.9949C63.0781 77.4688 62.3125 77.4688 61.8333 76.9949C61.3594 76.5157 61.3594 75.7553 61.8333 75.2761C62.2813 74.8282 62.8281 74.3438 63.3958 73.8386C65.3438 72.1199 67.5781 70.1563 66.3802 68.4324L65.2396 67.2917C65.1771 67.2292 65.125 67.1563 65.0781 67.0834C64.4219 67.7553 63.7031 68.3959 62.9948 69.0209C62.474 69.4792 61.9896 69.9011 61.5469 70.349C61.0729 70.823 60.3073 70.823 59.8281 70.349C59.349 69.8751 59.3542 69.1094 59.8281 68.6303C60.276 68.1824 60.8229 67.698 61.3906 67.1928C63.3385 65.474 65.5729 63.5105 64.375 61.7865L63.2344 60.6459C63.151 60.5626 63.0885 60.4844 63.0365 60.3855L59.6927 63.7292C59.2188 64.2032 58.4531 64.2032 57.974 63.7292C57.4948 63.2553 57.5 62.4897 57.974 62.0105L66.9427 53.0261C68.4427 51.5261 68.7865 49.9636 68.3906 48.7813C68.2448 48.349 68.0052 47.9636 67.7083 47.6667C67.4115 47.3699 67.026 47.1303 66.5938 46.9844C65.4271 46.599 63.8698 46.9532 62.3281 48.4949L46.599 64.224C46.125 64.698 45.3594 64.698 44.8802 64.224C44.401 63.7501 44.4063 62.9844 44.8802 62.5053L46.4792 60.9063L46.4635 60.8907ZM76.349 40.6615C75.7135 41.3386 74.6615 41.3594 73.9948 40.7344C73.3177 40.099 73.2969 39.0469 73.9219 38.3803L78.5156 33.4897C79.151 32.8126 80.2083 32.7917 80.8698 33.4167C81.5469 34.0522 81.5677 35.1042 80.9427 35.7709L76.349 40.6615ZM55.8958 40.3178C56.5729 40.9532 56.5938 42.0105 55.9688 42.6719C55.3333 43.349 54.276 43.3699 53.6146 42.7449L48.7188 38.1511C48.0469 37.5105 48.026 36.4584 48.6458 35.7969C49.2813 35.1199 50.3385 35.099 51 35.724L55.8958 40.3178ZM66.1719 36.3126C66.1979 37.2292 65.474 38.0001 64.5625 38.0313C63.651 38.0626 62.875 37.3334 62.8438 36.4219L62.6406 29.7188C62.6094 28.8074 63.3385 28.0313 64.25 28.0001C65.1667 27.974 65.9375 28.698 65.9635 29.6094L66.1719 36.3126ZM73.0417 60.974C72.3646 60.3386 72.3438 59.2813 72.9688 58.6199C73.6042 57.9428 74.6562 57.9219 75.3229 58.5469L80.2135 63.1407C80.8906 63.7761 80.9115 64.8282 80.2865 65.4949C79.651 66.1719 78.599 66.1928 77.9323 65.5678L73.0417 60.974ZM79.0208 51.099C78.1094 51.1303 77.3333 50.4011 77.3021 49.4897C77.276 48.5782 78 47.8022 78.9115 47.7709L85.6094 47.5469C86.5208 47.5157 87.2969 48.2449 87.3281 49.1563C87.3594 50.0678 86.6302 50.8438 85.7188 50.8751L79.0208 51.099ZM64.7083 58.7136C64.7969 58.7657 64.8854 58.8282 64.9688 58.9115L66.1615 60.1042C66.224 60.1667 66.2865 60.2501 66.3385 60.323C67.6771 62.1563 67.4688 63.7917 66.5573 65.2813C66.7188 65.3438 66.8802 65.4324 67.0052 65.5626L68.1979 66.7553C68.2604 66.8178 68.3229 66.9011 68.375 66.974C69.8125 68.9532 69.4531 70.6824 68.375 72.2553C68.4271 72.2813 68.4635 72.3282 68.5208 72.3803L69.7135 73.573C69.776 73.6355 69.8385 73.7188 69.8906 73.7917C72.6562 77.573 69.3594 80.7813 66.7135 83.3699L66.0312 84.0522L63.0781 87.1511L62.9844 87.2397C60.2813 89.6928 57.6042 90.349 54.5052 91.1042C53.9844 91.2292 53.4635 91.3647 52.7344 91.5522C52.7135 91.5522 52.7031 91.5626 52.6823 91.5626C51.0052 92.0209 49.4844 92.1303 48.1198 91.8855C46.7344 91.6355 45.5313 91.0157 44.526 90.0313L34.2031 79.7136C33.1615 78.7084 32.8021 77.4688 33.099 75.9949C33.3229 74.8178 34.0104 73.5105 35.0833 72.1042L37.8438 56.5105V56.448C37.9688 55.5574 38.25 54.2397 38.7344 52.9688C39.1042 52.0157 39.6042 51.0834 40.2552 50.3282C41.0417 49.4376 41.8177 48.8907 42.5833 48.599C43.526 48.2397 44.4271 48.2865 45.224 48.6303C45.9688 48.9428 46.599 49.5105 47.0781 50.2344C47.6615 51.1042 48.0417 52.2136 48.1458 53.3699C48.2292 54.323 48.3958 55.8959 48.5521 57.4376L48.6771 58.724L60.6042 46.7865C62.8958 44.4949 65.375 44.0417 67.3594 44.6928C68.1562 44.9532 68.8594 45.3855 69.4427 45.9688C70.026 46.5522 70.4583 47.2553 70.7188 48.0522C71.375 50.0313 70.9271 52.5469 68.6771 54.7969L64.724 58.7501L64.7083 58.7136Z"
              fill="#007BFF"/>
        <path d="M41.5937 50.3959H46.2812L49.6666 69.9271H37.1666L41.5937 50.3959Z" fill="#007BFF"/>
        <path d="M33.8129 77.9501L40.1345 65.4869L54.8751 55.8645L45.5 87.8958L33.8129 77.9501Z" fill="#007BFF"/>
        <path d="M52.2708 56.9323L65.2915 45.2136L70.7603 49.1198L51.7499 70.474L52.2708 56.9323Z" fill="#007BFF"/>
        <path d="M45.4999 87.8959L46.1507 69.2044L60.8913 59.582L49.1457 91.0208L45.4999 87.8959Z" fill="#007BFF"/>
        <path d="M49.4063 89.9791L50.5636 69.2043L65.3042 59.5819L60.0833 87.3749L49.4063 89.9791Z" fill="#007BFF"/>
        <path d="M58.7813 88.4166L63.2083 64.7187L69.4584 75.1353L68.1563 80.0833L58.7813 88.4166Z" fill="#007BFF"/>
        <path d="M56.735 65.2396L63.7291 59.7709L68.1562 69.6667L64.7708 72.2709L56.735 65.2396Z" fill="#007BFF"/>
    </g>
    <defs>
        <clipPath id="clip0">
            <rect width="54.3281" height="64" fill="white" transform="translate(33 28)"/>
        </clipPath>
    </defs>
</svg>
