<svg width="120" height="120" viewBox="0 0 120 120" fill="none" xmlns="http://www.w3.org/2000/svg">
    <circle cx="60" cy="60" r="60" fill="#CCE5FF"/>
    <path d="M57.4719 66.5043H48.4306C47.8956 66.5043 47.4623 66.9376 47.4623 67.4726V81.5104C47.4623 82.0454 47.8956 82.4787 48.4306 82.4787H57.4719C58.0069 82.4787 58.4396 82.0454 58.4396 81.5104V67.472C58.4396 66.9369 58.0063 66.5043 57.4719 66.5043Z"
          fill="#007BFF"/>
    <path d="M71.5692 37.5219H62.5279C61.9929 37.5219 61.5596 37.9551 61.5596 38.4902V81.5097C61.5596 82.0447 61.9929 82.478 62.5279 82.478H71.5692C72.1042 82.478 72.5375 82.0447 72.5375 81.5097V38.4902C72.5375 37.9551 72.1042 37.5219 71.5692 37.5219Z"
          fill="#007BFF"/>
    <path d="M85.7388 50.5914H76.6976C76.1625 50.5914 75.7292 51.0247 75.7292 51.5598V81.5098C75.7292 82.0449 76.1625 82.4782 76.6976 82.4782H85.7382C86.2732 82.4782 86.7065 82.0449 86.7065 81.5098V51.5598C86.7065 51.0254 86.2732 50.5914 85.7388 50.5914Z"
          fill="#007BFF"/>
    <path d="M43.3023 50.5914H34.261C33.726 50.5914 33.2927 51.0247 33.2927 51.5598V81.5098C33.2927 82.0449 33.726 82.4782 34.261 82.4782H43.3023C43.8374 82.4782 44.2706 82.0449 44.2706 81.5098V51.5598C44.2706 51.0254 43.8374 50.5914 43.3023 50.5914Z"
          fill="#007BFF"/>
</svg>
