<svg width="120" height="120" viewBox="0 0 120 120" fill="none" xmlns="http://www.w3.org/2000/svg">
    <circle cx="60" cy="60" r="60" fill="#CCE5FF"/>
    <path d="M32 56C36.4125 56 40 52.4125 40 48C40 43.5875 36.4125 40 32 40C27.5875 40 24 43.5875 24 48C24 52.4125 27.5875 56 32 56ZM88 56C92.4125 56 96 52.4125 96 48C96 43.5875 92.4125 40 88 40C83.5875 40 80 43.5875 80 48C80 52.4125 83.5875 56 88 56ZM92 60H84C81.8 60 79.8125 60.8875 78.3625 62.325C83.4 65.0875 86.975 70.075 87.75 76H96C98.2125 76 100 74.2125 100 72V68C100 63.5875 96.4125 60 92 60ZM60 60C67.7375 60 74 53.7375 74 46C74 38.2625 67.7375 32 60 32C52.2625 32 46 38.2625 46 46C46 53.7375 52.2625 60 60 60ZM69.6 64H68.5625C65.9625 65.25 63.075 66 60 66C56.925 66 54.05 65.25 51.4375 64H50.4C42.45 64 36 70.45 36 78.4V82C36 85.3125 38.6875 88 42 88H78C81.3125 88 84 85.3125 84 82V78.4C84 70.45 77.55 64 69.6 64ZM41.6375 62.325C40.1875 60.8875 38.2 60 36 60H28C23.5875 60 20 63.5875 20 68V72C20 74.2125 21.7875 76 24 76H32.2375C33.025 70.075 36.6 65.0875 41.6375 62.325Z"
          fill="#007BFF"/>
</svg>
